<svg width="40" height="40" viewBox="0 0 40 40" fill="none" xmlns="http://www.w3.org/2000/svg">
<rect width="40" height="40" rx="20" fill="#F5F6F7"/>
<path d="M20 22.5H17.5V20L25 12.5L27.5 15L20 22.5Z" stroke="#191B1C" stroke-width="1.25" stroke-linecap="round" stroke-linejoin="round"/>
<path d="M23.125 14.375L25.625 16.875" stroke="#191B1C" stroke-width="1.25" stroke-linecap="round" stroke-linejoin="round"/>
<path d="M26.875 19.375V26.25C26.875 26.4158 26.8092 26.5747 26.6919 26.6919C26.5747 26.8092 26.4158 26.875 26.25 26.875H13.75C13.5842 26.875 13.4253 26.8092 13.3081 26.6919C13.1908 26.5747 13.125 26.4158 13.125 26.25V13.75C13.125 13.5842 13.1908 13.4253 13.3081 13.3081C13.4253 13.1908 13.5842 13.125 13.75 13.125H20.625" stroke="#191B1C" stroke-width="1.25" stroke-linecap="round" stroke-linejoin="round"/>
</svg>
