<svg width="40" height="40" viewBox="0 0 40 40" fill="none" xmlns="http://www.w3.org/2000/svg">
<path fill-rule="evenodd" clip-rule="evenodd" d="M35.8132 17.083C35.7726 16.7812 35.7282 16.4797 35.6801 16.1786L35.5734 15.5096C35.1979 13.1573 33.1689 11.4265 30.7869 11.4265L17.2586 11.4265C16.7569 9.64161 15.1173 8.33301 13.172 8.33301H9.35269C6.88131 8.33301 4.79966 10.1796 4.505 12.6334L4.05086 16.4153C3.56311 20.477 3.68899 24.5889 4.42428 28.6132C4.81764 30.7661 6.6182 32.3799 8.80118 32.5361L11.3245 32.7166C17.1007 33.1299 22.8991 33.1299 28.6753 32.7166L31.4051 32.5213C32.7527 32.4249 33.9459 31.7403 34.7146 30.7097C35.7373 29.7286 36.5422 28.5303 37.0629 27.1913L39.1453 21.8365C40.0348 19.5494 38.3476 17.083 35.8936 17.083H35.8132ZM9.35269 10.833C8.14673 10.833 7.13095 11.7341 6.98717 12.9315L6.53303 16.7133C6.07517 20.5262 6.19333 24.3862 6.88356 28.1638C7.07194 29.1948 7.93419 29.9677 8.97958 30.0424L9.12293 30.0527L13.0097 20.0118C13.693 18.2466 15.3912 17.083 17.284 17.083H33.289C33.2644 16.9128 33.2385 16.7427 33.2114 16.5727L33.1046 15.9036C32.9228 14.7646 31.9403 13.9265 30.7869 13.9265L16.2655 13.9265C15.5205 13.9265 14.9166 13.3226 14.9166 12.5776C14.9166 11.6141 14.1355 10.833 13.172 10.833H9.35269Z" fill="#191B1C"/>
</svg>
