<svg width="16" height="16" viewBox="0 0 16 16" fill="none" xmlns="http://www.w3.org/2000/svg">
<path d="M8.62504 3.8335C8.62504 3.48832 8.34522 3.2085 8.00004 3.2085C7.65486 3.2085 7.37504 3.48832 7.37504 3.8335V8.00016C7.37504 8.21566 7.48605 8.41595 7.66879 8.53016L10.1688 10.0927C10.4615 10.2756 10.8471 10.1866 11.03 9.89391C11.213 9.6012 11.124 9.21561 10.8313 9.03266L8.62504 7.65376V3.8335Z" fill="#4A5154"/>
<path fill-rule="evenodd" clip-rule="evenodd" d="M8.00004 0.708496C3.97296 0.708496 0.708374 3.97309 0.708374 8.00016C0.708374 12.0272 3.97296 15.2918 8.00004 15.2918C12.0271 15.2918 15.2917 12.0272 15.2917 8.00016C15.2917 3.97309 12.0271 0.708496 8.00004 0.708496ZM1.95837 8.00016C1.95837 4.66344 4.66332 1.9585 8.00004 1.9585C11.3368 1.9585 14.0417 4.66344 14.0417 8.00016C14.0417 11.3369 11.3368 14.0418 8.00004 14.0418C4.66332 14.0418 1.95837 11.3369 1.95837 8.00016Z" fill="#4A5154"/>
</svg>
