<svg width="18" height="17" viewBox="0 0 18 17" fill="none" xmlns="http://www.w3.org/2000/svg">
<path d="M4.99997 15.875C4.91789 15.875 4.83662 15.8588 4.76079 15.8274C4.68496 15.796 4.61606 15.75 4.55802 15.6919C4.49999 15.6339 4.45395 15.565 4.42254 15.4892C4.39113 15.4133 4.37497 15.3321 4.37497 15.25L4.37501 11.9145C4.04159 12.0724 3.67365 12.1434 3.30541 12.1209C2.93717 12.0985 2.58059 11.9832 2.26885 11.7859C1.95711 11.5886 1.70033 11.3157 1.5224 10.9925C1.34447 10.6693 1.25116 10.3064 1.25116 9.93749C1.25116 9.56856 1.34447 9.20563 1.5224 8.88245C1.70033 8.55927 1.95711 8.28634 2.26885 8.08905C2.58059 7.89176 2.93717 7.77652 3.30541 7.75405C3.67365 7.73158 4.04159 7.8026 4.37501 7.96052L4.37497 4.625C4.37497 4.54292 4.39113 4.46164 4.42254 4.38581C4.45395 4.30998 4.49999 4.24108 4.55803 4.18305C4.61606 4.12501 4.68497 4.07897 4.7608 4.04756C4.83663 4.01615 4.9179 3.99999 4.99998 3.99999L8.64799 4.00003C8.49007 3.66661 8.41905 3.29867 8.44152 2.93043C8.464 2.56219 8.57924 2.20562 8.77653 1.89388C8.97381 1.58214 9.24674 1.32536 9.56992 1.14743C9.8931 0.969496 10.256 0.87619 10.625 0.87619C10.9939 0.87619 11.3568 0.969496 11.68 1.14743C12.0032 1.32536 12.2761 1.58214 12.4734 1.89388C12.6707 2.20562 12.7859 2.56219 12.8084 2.93043C12.8309 3.29867 12.7598 3.66661 12.6019 4.00003L16.2499 3.99999C16.4157 3.99999 16.5747 4.06583 16.6919 4.18304C16.8091 4.30025 16.8749 4.45922 16.8749 4.62498L16.875 7.96052C16.5416 7.8026 16.1736 7.73158 15.8054 7.75405C15.4371 7.77652 15.0806 7.89176 14.7688 8.08905C14.4571 8.28634 14.2003 8.55927 14.0224 8.88245C13.8444 9.20563 13.7511 9.56856 13.7511 9.93749C13.7511 10.3064 13.8444 10.6693 14.0224 10.9925C14.2003 11.3157 14.4571 11.5886 14.7688 11.7859C15.0806 11.9832 15.4371 12.0985 15.8054 12.1209C16.1736 12.1434 16.5416 12.0724 16.875 11.9145L16.8749 15.25C16.8749 15.4158 16.8091 15.5747 16.6919 15.6919C16.5747 15.8091 16.4157 15.875 16.2499 15.875L4.99997 15.875Z" stroke="#626C70" stroke-width="1.25" stroke-linecap="round" stroke-linejoin="round"/>
</svg>
