<svg width="24" height="24" viewBox="0 0 24 24" fill="none" xmlns="http://www.w3.org/2000/svg">
<path d="M6.66076 3.25303C6.56243 3.19039 6.43672 3.1904 6.3384 3.25304L1.39714 6.4011C1.21206 6.51901 1.21206 6.78921 1.39713 6.90713L6.33839 10.0553C6.43672 10.1179 6.56244 10.1179 6.66077 10.0553L11.6028 6.90706C11.7879 6.78915 11.7879 6.51891 11.6028 6.40101L6.66076 3.25303Z" fill="#0062FF"/>
<path d="M17.6612 3.25305C17.5629 3.1904 17.4371 3.1904 17.3388 3.25305L12.3971 6.40144C12.2121 6.51935 12.2121 6.78956 12.3971 6.90747L17.3388 10.0559C17.4371 10.1185 17.5629 10.1185 17.6612 10.0559L22.6029 6.90747C22.7879 6.78956 22.7879 6.51935 22.6029 6.40144L17.6612 3.25305Z" fill="#0062FF"/>
<path d="M1.39713 13.9153C1.21206 13.7974 1.21206 13.5272 1.39714 13.4093L6.3384 10.2612C6.43672 10.1986 6.56243 10.1986 6.66076 10.2612L11.6028 13.4092C11.7879 13.5271 11.7879 13.7974 11.6028 13.9153L6.66077 17.0635C6.56244 17.1261 6.43672 17.1261 6.33839 17.0635L1.39713 13.9153Z" fill="#0062FF"/>
<path d="M17.6612 10.2613C17.5629 10.1986 17.4371 10.1986 17.3388 10.2613L12.3971 13.4096C12.2121 13.5276 12.2121 13.7978 12.3971 13.9157L17.3388 17.064C17.4371 17.1266 17.5629 17.1266 17.6612 17.064L22.6029 13.9157C22.7879 13.7978 22.7879 13.5276 22.6029 13.4096L17.6612 10.2613Z" fill="#0062FF"/>
<path d="M6.89721 18.5946C6.71212 18.4767 6.71212 18.2065 6.89722 18.0886L11.8392 14.9405C11.9376 14.8779 12.0633 14.8779 12.1616 14.9405L17.1029 18.0885C17.2879 18.2064 17.2879 18.4766 17.1029 18.5945L12.1616 21.7428C12.0633 21.8054 11.9376 21.8054 11.8392 21.7428L6.89721 18.5946Z" fill="#0062FF"/>
</svg>
