<svg width="20" height="20" viewBox="0 0 20 20" fill="none" xmlns="http://www.w3.org/2000/svg">
<path d="M16.8746 5.625H10.2084L8.04041 3.99963C7.82427 3.83821 7.56188 3.75067 7.29212 3.75H3.12463C2.79321 3.75033 2.47546 3.88213 2.24111 4.11648C2.00676 4.35083 1.87496 4.66858 1.87463 5V15.625C1.87496 15.9564 2.00676 16.2742 2.24111 16.5085C2.47546 16.7429 2.79321 16.8747 3.12463 16.875H16.9442C17.2571 16.8746 17.5571 16.7501 17.7784 16.5288C17.9997 16.3075 18.1242 16.0075 18.1246 15.6946V6.875C18.1243 6.54358 17.9925 6.22583 17.7582 5.99148C17.5238 5.75713 17.2061 5.62533 16.8746 5.625Z" fill="#959FA3"/>
</svg>
