<svg width="20" height="20" viewBox="0 0 20 20" fill="none" xmlns="http://www.w3.org/2000/svg">
<path d="M12.2092 6.90605L6.90589 12.2093C6.78882 12.3266 6.72308 12.4855 6.72314 12.6512C6.72321 12.8169 6.78905 12.9758 6.90621 13.0929C7.02338 13.2101 7.18226 13.2759 7.34796 13.276C7.51365 13.2761 7.67259 13.2103 7.78983 13.0933L13.0931 7.78999C13.1512 7.73197 13.1973 7.66306 13.2288 7.58721C13.2603 7.51136 13.2765 7.43005 13.2765 7.34793C13.2765 7.26581 13.2604 7.18448 13.229 7.10861C13.1975 7.03274 13.1515 6.96379 13.0934 6.90573C13.0354 6.84766 12.9664 6.8016 12.8905 6.77019C12.8147 6.73878 12.7333 6.72263 12.6512 6.72266C12.5691 6.72269 12.4878 6.7389 12.4119 6.77037C12.3361 6.80183 12.2672 6.84794 12.2092 6.90605V6.90605Z" fill="#959FA3"/>
<path d="M10.8832 13.5355L8.67355 15.7452C8.08751 16.3312 7.29267 16.6605 6.46389 16.6605C5.6351 16.6605 4.84026 16.3312 4.25422 15.7452C3.66818 15.1592 3.33895 14.3643 3.33895 13.5355C3.33895 12.7067 3.66818 11.9119 4.25422 11.3259L6.46392 9.11616C6.52203 9.05814 6.56814 8.98923 6.59961 8.91338C6.63107 8.83753 6.64729 8.75622 6.64732 8.6741C6.64735 8.59198 6.63119 8.51066 6.59978 8.43478C6.56837 8.35891 6.52231 8.28997 6.46425 8.2319C6.40618 8.17383 6.33724 8.12778 6.26136 8.09636C6.18549 8.06495 6.10417 8.0488 6.02205 8.04883C5.93993 8.04886 5.85862 8.06507 5.78277 8.09654C5.70691 8.12801 5.63801 8.17411 5.57998 8.23222L3.37028 10.4419C2.54981 11.2624 2.08887 12.3752 2.08887 13.5355C2.08887 14.6959 2.54981 15.8087 3.37028 16.6291C4.19076 17.4496 5.30356 17.9105 6.46388 17.9105C7.62421 17.9105 8.73701 17.4496 9.55749 16.6291L11.7672 14.4194C11.8844 14.3022 11.9503 14.1432 11.9503 13.9775C11.9503 13.8117 11.8844 13.6527 11.7672 13.5355C11.65 13.4183 11.491 13.3524 11.3252 13.3524C11.1594 13.3524 11.0005 13.4183 10.8832 13.5355Z" fill="#959FA3"/>
<path d="M16.6289 3.37022C15.8084 2.54978 14.6956 2.08887 13.5352 2.08887C12.3749 2.08887 11.2621 2.54978 10.4416 3.37022L8.23194 5.57992C8.11487 5.69717 8.04913 5.85611 8.04919 6.0218C8.04925 6.18749 8.1151 6.34638 8.23226 6.46354C8.34943 6.58071 8.50831 6.64655 8.67401 6.64661C8.8397 6.64667 8.99864 6.58094 9.11588 6.46387L11.3256 4.25417C11.9117 3.66843 12.7064 3.33946 13.535 3.33959C14.3637 3.33972 15.1583 3.66895 15.7442 4.25487C16.3301 4.84078 16.6594 5.63542 16.6595 6.46403C16.6596 7.29265 16.3306 8.08739 15.7449 8.67349L13.5352 10.8832C13.4181 11.0004 13.3524 11.1594 13.3525 11.3251C13.3525 11.4908 13.4184 11.6497 13.5355 11.7668C13.6527 11.884 13.8116 11.9498 13.9773 11.9499C14.143 11.9499 14.3019 11.8842 14.4192 11.7671L16.6289 9.55743C17.4481 8.73631 17.9082 7.62375 17.9082 6.46383C17.9082 5.30391 17.4481 4.19135 16.6289 3.37022Z" fill="#959FA3"/>
</svg>
