<svg width="40" height="40" viewBox="0 0 40 40" fill="none" xmlns="http://www.w3.org/2000/svg">
<rect width="40" height="40" rx="20" fill="#F0F6FF"/>
<path d="M20 13.25C20.4142 13.25 20.75 13.5858 20.75 14C20.75 14.4142 20.4142 14.75 20 14.75C19.5858 14.75 19.25 14.4142 19.25 14C19.25 13.5858 19.5858 13.25 20 13.25ZM20 19.25C20.4142 19.25 20.75 19.5858 20.75 20C20.75 20.4142 20.4142 20.75 20 20.75C19.5858 20.75 19.25 20.4142 19.25 20C19.25 19.5858 19.5858 19.25 20 19.25ZM20 25.25C20.4142 25.25 20.75 25.5858 20.75 26C20.75 26.4142 20.4142 26.75 20 26.75C19.5858 26.75 19.25 26.4142 19.25 26C19.25 25.5858 19.5858 25.25 20 25.25Z" fill="#005CE8" stroke="#005CE8" stroke-width="1.5"/>
</svg>
