<svg width="15" height="16" viewBox="0 0 15 16" fill="none" xmlns="http://www.w3.org/2000/svg">
<path d="M9.37454 14.2491V10.4991C9.37454 10.3333 9.30869 10.1743 9.19148 10.0571C9.07427 9.9399 8.9153 9.87405 8.74954 9.87405H6.24954C6.08378 9.87405 5.92481 9.9399 5.8076 10.0571C5.69039 10.1743 5.62454 10.3333 5.62454 10.4991V14.2491C5.62454 14.4149 5.5587 14.5738 5.44151 14.691C5.32432 14.8083 5.16537 14.8741 4.99962 14.8741L1.25008 14.8746C1.168 14.8746 1.08671 14.8585 1.01088 14.8271C0.935039 14.7957 0.866131 14.7496 0.808086 14.6916C0.750041 14.6336 0.703997 14.5647 0.672583 14.4888C0.641169 14.413 0.625 14.3317 0.625 14.2496V7.02616C0.625 6.93908 0.643195 6.85297 0.678418 6.77333C0.713641 6.6937 0.765115 6.62231 0.82954 6.56373L7.07911 0.881324C7.19415 0.77672 7.34406 0.718755 7.49955 0.71875C7.65504 0.718745 7.80495 0.7767 7.92 0.881296L14.1704 6.56373C14.2349 6.6223 14.2863 6.6937 14.3216 6.77334C14.3568 6.85298 14.375 6.9391 14.375 7.02618V14.2496C14.375 14.3317 14.3588 14.413 14.3274 14.4888C14.296 14.5647 14.25 14.6336 14.1919 14.6916C14.1339 14.7496 14.065 14.7957 13.9891 14.8271C13.9133 14.8585 13.832 14.8746 13.7499 14.8746L9.99946 14.8741C9.83372 14.8741 9.67476 14.8083 9.55757 14.691C9.44038 14.5738 9.37454 14.4149 9.37454 14.2491V14.2491Z" stroke="white" stroke-width="1.25" stroke-linecap="round" stroke-linejoin="round"/>
</svg>
