<svg width="64" height="64" viewBox="0 0 64 64" fill="none" xmlns="http://www.w3.org/2000/svg">
<rect width="64" height="64" rx="32" fill="#F0F6FF"/>
<path d="M40.6221 35.8522L32 40.8817L23.3779 35.8522C23.2061 35.7519 23.0015 35.7241 22.8092 35.7747C22.6168 35.8253 22.4524 35.9503 22.3522 36.1221C22.2519 36.2939 22.2241 36.4985 22.2747 36.6909C22.3253 36.8832 22.4503 37.0476 22.6221 37.1478L31.6221 42.3978C31.7368 42.4647 31.8672 42.5 32 42.5C32.1328 42.5 32.2632 42.4647 32.3779 42.3978L41.3779 37.1478C41.463 37.0982 41.5375 37.0323 41.5971 36.9539C41.6567 36.8755 41.7003 36.7861 41.7253 36.6909C41.7504 36.5956 41.7565 36.4964 41.7432 36.3988C41.7299 36.3012 41.6975 36.2072 41.6478 36.1221C41.5982 36.037 41.5323 35.9625 41.4539 35.9029C41.3755 35.8433 41.2861 35.7998 41.1909 35.7747C41.0956 35.7496 40.9964 35.7436 40.8988 35.7569C40.8012 35.7702 40.7072 35.8026 40.6221 35.8522Z" fill="#005CE8"/>
<path d="M40.6221 31.3522L32 36.3817L23.3779 31.3522C23.2061 31.2519 23.0015 31.2241 22.8092 31.2747C22.6168 31.3253 22.4524 31.4503 22.3522 31.6221C22.2519 31.7939 22.2241 31.9985 22.2747 32.1909C22.3253 32.3832 22.4503 32.5476 22.6221 32.6478L31.6221 37.8978C31.7368 37.9647 31.8672 38 32 38C32.1328 38 32.2632 37.9647 32.3779 37.8978L41.3779 32.6478C41.5498 32.5476 41.6747 32.3832 41.7253 32.1909C41.7759 31.9985 41.7481 31.7939 41.6478 31.6221C41.5476 31.4503 41.3832 31.3253 41.1909 31.2747C40.9985 31.2241 40.7939 31.2519 40.6221 31.3522Z" fill="#005CE8"/>
<path d="M22.6221 28.1478L31.6221 33.3978C31.7368 33.4647 31.8672 33.5 32 33.5C32.1328 33.5 32.2632 33.4647 32.3779 33.3978L41.3779 28.1478C41.4911 28.0818 41.5851 27.9872 41.6504 27.8735C41.7156 27.7599 41.75 27.6311 41.75 27.5C41.75 27.3689 41.7156 27.2401 41.6504 27.1265C41.5851 27.0128 41.4911 26.9182 41.3779 26.8522L32.3779 21.6022C32.2632 21.5353 32.1328 21.5 32 21.5C31.8672 21.5 31.7368 21.5353 31.6221 21.6022L22.6221 26.8522C22.5089 26.9182 22.4149 27.0128 22.3496 27.1265C22.2844 27.2401 22.25 27.3689 22.25 27.5C22.25 27.6311 22.2844 27.7599 22.3496 27.8735C22.4149 27.9872 22.5089 28.0818 22.6221 28.1478Z" fill="#005CE8"/>
</svg>
