<svg width="64" height="64" viewBox="0 0 64 64" fill="none" xmlns="http://www.w3.org/2000/svg">
<rect width="64" height="64" rx="32" fill="#F0F6FF"/>
<path d="M41.7502 28.6895L35.3109 22.25C35.0293 21.9692 34.6479 21.8115 34.2502 21.8115C33.8525 21.8115 33.4711 21.9693 33.1895 22.2501L30.8347 24.6049L25.3922 26.6459C25.146 26.7386 24.9284 26.8944 24.7612 27.0976C24.594 27.3008 24.483 27.5443 24.4393 27.8038L22.4924 39.4848C22.4793 39.5631 22.4915 39.6436 22.5272 39.7146C22.5628 39.7856 22.6201 39.8435 22.6907 39.8799C22.7614 39.9162 22.8417 39.9292 22.9202 39.9169C22.9987 39.9046 23.0713 39.8677 23.1275 39.8116L28.2916 34.6473C27.9202 34.0175 27.7913 33.2739 27.929 32.5559C28.0667 31.8378 28.4616 31.1947 29.0396 30.747C29.6176 30.2993 30.3391 30.0778 31.0687 30.124C31.7984 30.1703 32.4861 30.4811 33.003 30.9981C33.5199 31.5152 33.8304 32.2031 33.8764 32.9328C33.9223 33.6625 33.7006 34.3838 33.2526 34.9617C32.8047 35.5395 32.1614 35.9342 31.4433 36.0716C30.7252 36.209 29.9817 36.0798 29.352 35.7081L24.1872 40.8731C24.1311 40.9293 24.0942 41.0019 24.0819 41.0804C24.0696 41.1589 24.0826 41.2392 24.119 41.3099C24.1553 41.3805 24.2132 41.4378 24.2842 41.4734C24.3552 41.5091 24.4357 41.5212 24.5141 41.5082L36.1966 39.5611C36.4561 39.5174 36.6995 39.4064 36.9027 39.2392C37.1059 39.072 37.2617 38.8544 37.3544 38.6082L39.3954 33.1657L41.7502 30.8108C41.8895 30.6716 42 30.5062 42.0754 30.3242C42.1508 30.1422 42.1896 29.9472 42.1896 29.7502C42.1896 29.5532 42.1508 29.3581 42.0754 29.1761C42 28.9941 41.8895 28.8287 41.7502 28.6895V28.6895ZM38.7502 31.6894L32.3109 25.2501L34.2502 23.3107L40.6895 29.7501L38.7502 31.6894Z" fill="#005CE8"/>
<path d="M30.876 34.625C31.7044 34.625 32.376 33.9534 32.376 33.125C32.376 32.2966 31.7044 31.625 30.876 31.625C30.0475 31.625 29.376 32.2966 29.376 33.125C29.376 33.9534 30.0475 34.625 30.876 34.625Z" fill="#005CE8"/>
</svg>
