<svg width="64" height="64" viewBox="0 0 64 64" fill="none" xmlns="http://www.w3.org/2000/svg">
<rect width="64" height="64" rx="32" fill="#F0F6FF"/>
<path d="M33.5 40.25H30.5C30.3011 40.25 30.1103 40.329 29.9697 40.4697C29.829 40.6103 29.75 40.8011 29.75 41C29.75 41.1989 29.829 41.3897 29.9697 41.5303C30.1103 41.671 30.3011 41.75 30.5 41.75H33.5C33.6989 41.75 33.8897 41.671 34.0303 41.5303C34.171 41.3897 34.25 41.1989 34.25 41C34.25 40.8011 34.171 40.6103 34.0303 40.4697C33.8897 40.329 33.6989 40.25 33.5 40.25Z" fill="#005CE8"/>
<path d="M40.5899 33.4866L37.7552 30.085C37.6646 28.9646 37.4126 27.8631 37.007 26.8147C35.9179 23.9823 33.9924 22.1273 32.9415 21.2735C32.6751 21.059 32.3436 20.9416 32.0015 20.9404C31.6594 20.9393 31.3271 21.0546 31.0592 21.2673C29.9946 22.1201 28.0444 23.9738 26.9443 26.8066C26.5252 27.8787 26.2693 29.0076 26.1852 30.1557L23.4094 33.4866C23.2632 33.6632 23.1591 33.8707 23.1051 34.0935C23.051 34.3162 23.0484 34.5484 23.0974 34.7723L24.2565 39.9879C24.3114 40.2367 24.4289 40.4675 24.5978 40.6583C24.7668 40.8491 24.9816 40.9937 25.222 41.0784C25.4623 41.1631 25.7203 41.185 25.9716 41.1422C26.2228 41.0994 26.459 40.9933 26.6577 40.8338L29.2627 38.7499H34.7366L37.3415 40.8338C37.6062 41.0469 37.9358 41.1632 38.2757 41.1635C38.4464 41.1634 38.6159 41.1342 38.7769 41.0773C39.0176 40.9934 39.2328 40.8492 39.4019 40.6585C39.571 40.4678 39.6883 40.2369 39.7428 39.9879L40.9019 34.7724C40.9509 34.5485 40.9483 34.3163 40.8942 34.0935C40.8402 33.8707 40.7361 33.6632 40.5899 33.4866ZM25.7208 39.6625L24.5617 34.4469L26.2423 32.4301C26.4554 34.1824 27.0535 35.9756 28.0367 37.8098L25.7208 39.6625ZM31.9997 30.1249C31.7771 30.1249 31.5596 30.0589 31.3746 29.9353C31.1896 29.8116 31.0454 29.6359 30.9603 29.4304C30.8751 29.2248 30.8529 28.9986 30.8963 28.7804C30.9397 28.5622 31.0468 28.3617 31.2042 28.2044C31.3615 28.047 31.5619 27.9399 31.7802 27.8965C31.9984 27.8531 32.2246 27.8753 32.4302 27.9605C32.6357 28.0456 32.8114 28.1898 32.9351 28.3748C33.0587 28.5598 33.1247 28.7774 33.1247 28.9999C33.1247 29.2982 33.0061 29.5844 32.7951 29.7954C32.5842 30.0063 32.298 30.1249 31.9997 30.1249ZM38.2785 39.6625L35.9582 37.8063C36.9289 35.9593 37.5146 34.1506 37.7154 32.3803L39.4376 34.4469L38.2785 39.6625Z" fill="#005CE8"/>
</svg>
