<svg width="64" height="64" viewBox="0 0 64 64" fill="none" xmlns="http://www.w3.org/2000/svg">
<rect width="64" height="64" rx="32" fill="#F0F6FF"/>
<path d="M41.6213 22.3791C41.0582 21.8174 40.2954 21.502 39.5 21.502C38.7047 21.502 37.9418 21.8174 37.3788 22.3791C37.3691 22.3886 37.3599 22.3985 37.3508 22.4085L32.2038 28.1435L31.341 27.2807C30.9191 26.8588 30.3468 26.6217 29.75 26.6217C29.1533 26.6217 28.581 26.8588 28.159 27.2807L20.9697 34.4701C20.829 34.6107 20.75 34.8015 20.75 35.0004C20.75 35.1994 20.829 35.3901 20.9697 35.5308L28.4697 43.0308C28.6103 43.1714 28.8011 43.2504 29 43.2504C29.1989 43.2504 29.3897 43.1714 29.5304 43.0308L36.7198 35.8414C37.1417 35.4195 37.3787 34.8472 37.3787 34.2504C37.3787 33.6537 37.1417 33.0814 36.7198 32.6594L35.857 31.7967L41.592 26.6496C41.602 26.6406 41.6119 26.6313 41.6214 26.6217C42.1831 26.0586 42.4986 25.2957 42.4986 24.5004C42.4986 23.705 42.1831 22.9421 41.6213 22.3791ZM29 41.4398L27.6761 40.1159L30.07 37.7221C30.2105 37.5814 30.2894 37.3907 30.2893 37.1919C30.2892 36.993 30.2102 36.8024 30.0696 36.6618C29.929 36.5212 29.7384 36.4422 29.5395 36.4421C29.3407 36.442 29.15 36.5209 29.0093 36.6614L26.6154 39.0552L25.0511 37.4909L27.445 35.0971C27.5855 34.9564 27.6644 34.7657 27.6643 34.5669C27.6642 34.368 27.5852 34.1774 27.4446 34.0368C27.304 33.8962 27.1134 33.8172 26.9145 33.8171C26.7157 33.817 26.525 33.8959 26.3843 34.0364L23.9904 36.4302L22.5607 35.0004L26.75 30.8112L33.1893 37.2504L29 41.4398Z" fill="#005CE8"/>
</svg>
