<svg width="64" height="64" viewBox="0 0 64 64" fill="none" xmlns="http://www.w3.org/2000/svg">
<rect width="64" height="64" rx="32" fill="#F0F6FF"/>
<path d="M38.8224 25.0522C37.007 23.2546 34.5546 22.2474 31.9998 22.25C31.9665 22.25 31.9332 22.2502 31.8999 22.2505C29.6083 22.2744 27.3983 23.1046 25.6578 24.5955C23.9173 26.0863 22.7574 28.1426 22.3819 30.4034C22.0063 32.6641 22.4389 34.9849 23.6039 36.9585C24.7689 38.9321 26.5917 40.4323 28.7525 41.1958C29.205 41.3553 29.6891 41.404 30.1643 41.3377C30.6395 41.2715 31.0918 41.0922 31.4834 40.815C31.875 40.5378 32.1943 40.1707 32.4147 39.7446C32.6351 39.3184 32.7501 38.8456 32.75 38.3659V38C32.7505 37.6023 32.9087 37.2211 33.1899 36.9398C33.4711 36.6586 33.8523 36.5005 34.25 36.5H38.5822C39.2626 36.5033 39.9237 36.2738 40.4558 35.8497C40.988 35.4256 41.3591 34.8323 41.5076 34.1682C41.6751 33.4295 41.7563 32.6739 41.7497 31.9164C41.7404 30.6354 41.4769 29.3691 40.9744 28.1907C40.4719 27.0124 39.7404 25.9456 38.8224 25.0522ZM28.3407 35.4118C28.148 35.523 27.9266 35.5746 27.7046 35.5601C27.4825 35.5455 27.2698 35.4655 27.0933 35.33C26.9168 35.1946 26.7844 35.0098 26.7128 34.7991C26.6413 34.5884 26.6339 34.3612 26.6915 34.1463C26.7491 33.9314 26.8691 33.7384 27.0364 33.5917C27.2037 33.445 27.4107 33.3512 27.6313 33.3221C27.8519 33.2931 28.0762 33.3301 28.2757 33.4285C28.4753 33.5269 28.6412 33.6823 28.7524 33.875C28.8263 34.0029 28.8742 34.1442 28.8935 34.2907C28.9128 34.4371 28.9031 34.586 28.8648 34.7287C28.8266 34.8714 28.7606 35.0051 28.6707 35.1223C28.5807 35.2396 28.4686 35.3379 28.3407 35.4118ZM28.7524 30.125C28.6412 30.3177 28.4753 30.4731 28.2757 30.5715C28.0762 30.6699 27.8519 30.7069 27.6313 30.6779C27.4107 30.6488 27.2037 30.555 27.0364 30.4083C26.8691 30.2616 26.7491 30.0686 26.6915 29.8537C26.6339 29.6387 26.6413 29.4116 26.7129 29.2009C26.7844 28.9902 26.9168 28.8054 27.0933 28.67C27.2698 28.5345 27.4825 28.4545 27.7046 28.4399C27.9266 28.4253 28.148 28.477 28.3407 28.5882C28.4686 28.6621 28.5807 28.7604 28.6707 28.8776C28.7606 28.9948 28.8266 29.1286 28.8648 29.2713C28.9031 29.414 28.9128 29.5629 28.8935 29.7093C28.8743 29.8558 28.8263 29.9971 28.7524 30.125ZM32 28.25C31.7775 28.25 31.56 28.184 31.375 28.0604C31.19 27.9368 31.0458 27.7611 30.9607 27.5555C30.8755 27.35 30.8532 27.1238 30.8966 26.9055C30.9401 26.6873 31.0472 26.4868 31.2045 26.3295C31.3619 26.1722 31.5623 26.065 31.7805 26.0216C31.9988 25.9782 32.225 26.0005 32.4305 26.0856C32.6361 26.1708 32.8118 26.315 32.9354 26.5C33.059 26.685 33.125 26.9025 33.125 27.125C33.125 27.4234 33.0065 27.7095 32.7955 27.9205C32.5845 28.1315 32.2984 28.25 32 28.25ZM36.7844 30.5368C36.5917 30.648 36.3703 30.6996 36.1483 30.6851C35.9263 30.6705 35.7136 30.5905 35.537 30.455C35.3605 30.3196 35.2281 30.1348 35.1566 29.9241C35.0851 29.7134 35.0776 29.4862 35.1352 29.2713C35.1928 29.0564 35.3128 28.8634 35.4801 28.7167C35.6474 28.57 35.8545 28.4762 36.0751 28.4471C36.2957 28.4181 36.5199 28.4551 36.7195 28.5535C36.919 28.6519 37.0849 28.8073 37.1962 29C37.27 29.1279 37.318 29.2692 37.3373 29.4157C37.3566 29.5621 37.3468 29.711 37.3086 29.8537C37.2703 29.9964 37.2044 30.1301 37.1144 30.2473C37.0245 30.3646 36.9123 30.4629 36.7844 30.5368Z" fill="#005CE8"/>
</svg>
