<svg width="64" height="64" viewBox="0 0 64 64" fill="none" xmlns="http://www.w3.org/2000/svg">
<rect width="64" height="64" rx="32" fill="#F0F6FF"/>
<path d="M41.75 26V24.5C41.7495 24.1023 41.5914 23.721 41.3102 23.4398C41.029 23.1586 40.6477 23.0005 40.25 23H23.75C23.3523 23.0005 22.971 23.1586 22.6898 23.4398C22.4086 23.721 22.2505 24.1023 22.25 24.5V26C22.2505 26.3977 22.4086 26.779 22.6898 27.0602C22.971 27.3414 23.3523 27.4995 23.75 27.5V36.5H23C22.8011 36.5 22.6103 36.579 22.4697 36.7197C22.329 36.8603 22.25 37.0511 22.25 37.25C22.25 37.4489 22.329 37.6397 22.4697 37.7803C22.6103 37.921 22.8011 38 23 38H31.25V39.629C30.7496 39.8059 30.3278 40.1541 30.0593 40.6119C29.7907 41.0697 29.6926 41.6077 29.7824 42.1308C29.8722 42.6539 30.144 43.1285 30.5498 43.4706C30.9556 43.8127 31.4692 44.0003 32 44.0003C32.5308 44.0003 33.0444 43.8127 33.4502 43.4706C33.856 43.1285 34.1278 42.6539 34.2176 42.1308C34.3073 41.6077 34.2093 41.0697 33.9407 40.6119C33.6722 40.1541 33.2504 39.8059 32.75 39.629V38H41C41.1989 38 41.3897 37.921 41.5303 37.7803C41.671 37.6397 41.75 37.4489 41.75 37.25C41.75 37.0511 41.671 36.8603 41.5303 36.7197C41.3897 36.579 41.1989 36.5 41 36.5H40.25V27.5C40.6477 27.4995 41.029 27.3414 41.3102 27.0602C41.5914 26.779 41.7495 26.3977 41.75 26ZM29.75 33.5C29.75 33.6989 29.671 33.8897 29.5303 34.0303C29.3897 34.171 29.1989 34.25 29 34.25C28.8011 34.25 28.6103 34.171 28.4697 34.0303C28.329 33.8897 28.25 33.6989 28.25 33.5V32C28.25 31.8011 28.329 31.6103 28.4697 31.4697C28.6103 31.329 28.8011 31.25 29 31.25C29.1989 31.25 29.3897 31.329 29.5303 31.4697C29.671 31.6103 29.75 31.8011 29.75 32V33.5ZM32 42.5C31.8517 42.5 31.7067 42.456 31.5833 42.3736C31.46 42.2912 31.3639 42.1741 31.3071 42.037C31.2503 41.9 31.2355 41.7492 31.2644 41.6037C31.2934 41.4582 31.3648 41.3246 31.4697 41.2197C31.5746 41.1148 31.7082 41.0433 31.8537 41.0144C31.9992 40.9855 32.15 41.0003 32.287 41.0571C32.4241 41.1139 32.5412 41.21 32.6236 41.3333C32.706 41.4567 32.75 41.6017 32.75 41.75C32.7498 41.9488 32.6707 42.1395 32.5301 42.2801C32.3895 42.4207 32.1988 42.4998 32 42.5ZM32.75 33.5C32.75 33.6989 32.671 33.8897 32.5303 34.0303C32.3897 34.171 32.1989 34.25 32 34.25C31.8011 34.25 31.6103 34.171 31.4697 34.0303C31.329 33.8897 31.25 33.6989 31.25 33.5V31.25C31.25 31.0511 31.329 30.8603 31.4697 30.7197C31.6103 30.579 31.8011 30.5 32 30.5C32.1989 30.5 32.3897 30.579 32.5303 30.7197C32.671 30.8603 32.75 31.0511 32.75 31.25V33.5ZM35.75 33.5C35.75 33.6989 35.671 33.8897 35.5303 34.0303C35.3897 34.171 35.1989 34.25 35 34.25C34.8011 34.25 34.6103 34.171 34.4697 34.0303C34.329 33.8897 34.25 33.6989 34.25 33.5V30.5C34.25 30.3011 34.329 30.1103 34.4697 29.9697C34.6103 29.829 34.8011 29.75 35 29.75C35.1989 29.75 35.3897 29.829 35.5303 29.9697C35.671 30.1103 35.75 30.3011 35.75 30.5V33.5ZM23.75 26V24.5H40.25L40.2509 26H23.75Z" fill="#005CE8"/>
</svg>
