<svg width="64" height="64" viewBox="0 0 64 64" fill="none" xmlns="http://www.w3.org/2000/svg">
<g clip-path="url(#clip0_1913_25159)">
<path d="M40.6581 47.0764H23.3506V16.6572H40.6584L40.6581 47.0764Z" fill="white" fill-opacity="0.7"/>
<path d="M24.448 31.8674C24.448 25.6969 27.4022 20.2001 32.0026 16.6578C28.5204 13.9725 24.2134 12.5151 19.7789 12.5215C8.85504 12.5215 0 21.1828 0 31.8674C0 42.552 8.85504 51.2133 19.7789 51.2133C24.2135 51.2197 28.5206 49.7623 32.0029 47.077C27.4029 43.5353 24.448 38.0382 24.448 31.8674Z" fill="white"/>
<path d="M64.0074 31.8674C64.0074 42.552 55.1524 51.2133 44.2285 51.2133C39.7934 51.2196 35.4859 49.7623 32.0029 47.077C36.6045 43.5346 39.5588 38.0382 39.5588 31.8674C39.5588 25.6966 36.6045 20.2001 32.0029 16.6578C35.4858 13.9726 39.7932 12.5152 44.2282 12.5215C55.1521 12.5215 64.0071 21.1828 64.0071 31.8674" fill="white"/>
</g>
<defs>
<clipPath id="clip0_1913_25159">
<rect width="64" height="64" fill="white"/>
</clipPath>
</defs>
</svg>
