<svg width="40" height="40" viewBox="0 0 40 40" fill="none" xmlns="http://www.w3.org/2000/svg">
<path fill-rule="evenodd" clip-rule="evenodd" d="M35.8131 17.084C35.7725 16.7821 35.7281 16.4807 35.6801 16.1796L35.5733 15.5106C35.1978 13.1583 33.1689 11.4275 30.7869 11.4275L17.2586 11.4275C16.7569 9.64259 15.1172 8.33398 13.1719 8.33398H9.35263C6.88125 8.33398 4.7996 10.1806 4.50494 12.6344L4.0508 16.4162C3.56305 20.4779 3.68893 24.5899 4.42422 28.6142C4.81758 30.7671 6.61814 32.3809 8.80112 32.537L11.3245 32.7176C17.1007 33.1308 22.899 33.1308 28.6752 32.7176L31.405 32.5223C32.7526 32.4259 33.9459 31.7412 34.7145 30.7107C35.7373 29.7296 36.5421 28.5313 37.0629 27.1922L39.1453 21.8375C40.0347 19.5504 38.3476 17.084 35.8935 17.084H35.8131ZM9.35263 10.834C8.14667 10.834 7.13089 11.7351 6.98711 12.9324L6.53297 16.7143C6.07511 20.5271 6.19327 24.3871 6.8835 28.1648C7.07187 29.1958 7.93413 29.9686 8.97952 30.0434L9.12286 30.0537L13.0097 20.0128C13.693 18.2476 15.3911 17.084 17.2839 17.084H33.2889C33.2643 16.9137 33.2385 16.7436 33.2113 16.5737L33.1045 15.9046C32.9227 14.7656 31.9403 13.9275 30.7869 13.9275L16.2654 13.9275C15.5204 13.9275 14.9165 13.3236 14.9165 12.5786C14.9165 11.6151 14.1354 10.834 13.1719 10.834H9.35263Z" fill="#191B1C"/>
</svg>
