<svg width="324" height="148" viewBox="0 0 324 148" fill="none" xmlns="http://www.w3.org/2000/svg">
<rect width="20" height="148" rx="10" fill="#F0F6FF"/>
<rect x="6" y="78" width="8" height="64" rx="4" fill="#0E5FD9"/>
<rect x="43.4286" width="20" height="148" rx="10" fill="#F0F6FF"/>
<rect x="49.4286" y="37" width="8" height="105" rx="4" fill="#0E5FD9"/>
<rect x="86.8571" width="20" height="148" rx="10" fill="#F0F6FF"/>
<rect x="92.8571" y="103" width="8" height="39" rx="4" fill="#0E5FD9"/>
<rect x="130.286" width="20" height="148" rx="10" fill="#F0F6FF"/>
<rect x="136.286" y="68" width="8" height="74" rx="4" fill="#0E5FD9"/>
<rect x="173.714" width="20" height="148" rx="10" fill="#F0F6FF"/>
<rect x="179.714" y="86" width="8" height="56" rx="4" fill="#0E5FD9"/>
<rect x="217.143" width="20" height="148" rx="10" fill="#F0F6FF"/>
<rect x="223.143" y="46" width="8" height="96" rx="4" fill="#0E5FD9"/>
<rect x="260.571" width="20" height="148" rx="10" fill="#F0F6FF"/>
<rect x="266.571" y="73" width="8" height="69" rx="4" fill="#0E5FD9"/>
<rect x="304" width="20" height="148" rx="10" fill="#F0F6FF"/>
<rect x="310" y="93" width="8" height="49" rx="4" fill="#0E5FD9"/>
</svg>
