<svg width="160" height="161" viewBox="0 0 160 161" fill="none" xmlns="http://www.w3.org/2000/svg">
<mask id="path-1-outside-1_2023_23796" maskUnits="userSpaceOnUse" x="110" y="17" width="51" height="107" fill="black">
<rect fill="white" x="110" y="17" width="51" height="107"/>
<path d="M129.945 21.3954C143.807 33.2093 153.033 49.5547 155.983 67.5277C158.933 85.5008 155.417 103.938 146.059 119.563L126.241 107.694C132.792 96.7564 135.253 83.8506 133.188 71.2694C131.123 58.6883 124.665 47.2465 114.961 38.9767L129.945 21.3954Z"/>
</mask>
<path d="M129.945 21.3954C143.807 33.2093 153.033 49.5547 155.983 67.5277C158.933 85.5008 155.417 103.938 146.059 119.563L126.241 107.694C132.792 96.7564 135.253 83.8506 133.188 71.2694C131.123 58.6883 124.665 47.2465 114.961 38.9767L129.945 21.3954Z" fill="#FF9500"/>
<path d="M129.945 21.3954C143.807 33.2093 153.033 49.5547 155.983 67.5277C158.933 85.5008 155.417 103.938 146.059 119.563L126.241 107.694C132.792 96.7564 135.253 83.8506 133.188 71.2694C131.123 58.6883 124.665 47.2465 114.961 38.9767L129.945 21.3954Z" stroke="white" stroke-width="6" mask="url(#path-1-outside-1_2023_23796)"/>
<mask id="path-2-outside-2_2023_23796" maskUnits="userSpaceOnUse" x="79" y="102" width="73" height="59" fill="black">
<rect fill="white" x="79" y="102" width="73" height="59"/>
<path d="M146.976 117.989C140.578 129.27 131.433 138.753 120.391 145.556C109.348 152.359 96.7667 156.263 83.8128 156.906L82.6689 133.834C91.7367 133.384 100.544 130.652 108.273 125.889C116.003 121.127 122.404 114.489 126.884 106.592L146.976 117.989Z"/>
</mask>
<path d="M146.976 117.989C140.578 129.27 131.433 138.753 120.391 145.556C109.348 152.359 96.7667 156.263 83.8128 156.906L82.6689 133.834C91.7367 133.384 100.544 130.652 108.273 125.889C116.003 121.127 122.404 114.489 126.884 106.592L146.976 117.989Z" fill="#E84646"/>
<path d="M146.976 117.989C140.578 129.27 131.433 138.753 120.391 145.556C109.348 152.359 96.7667 156.263 83.8128 156.906L82.6689 133.834C91.7367 133.384 100.544 130.652 108.273 125.889C116.003 121.127 122.404 114.489 126.884 106.592L146.976 117.989Z" stroke="white" stroke-width="6" mask="url(#path-2-outside-2_2023_23796)"/>
<mask id="path-3-outside-3_2023_23796" maskUnits="userSpaceOnUse" x="0" y="0" width="135" height="160" fill="black">
<rect fill="white" width="135" height="160"/>
<path d="M93.3709 155.83C80.5981 158.082 67.4634 157.072 55.1855 152.892C42.9077 148.712 31.8845 141.499 23.1389 131.921C14.3934 122.344 8.20875 110.712 5.159 98.1059C2.10925 85.4998 2.29319 72.3275 5.69373 59.8114C9.09428 47.2953 15.6013 35.841 24.6108 26.5113C33.6204 17.1816 44.8407 10.2788 57.2305 6.44356C69.6203 2.60828 82.7781 1.96476 95.483 4.57271C108.188 7.18066 120.028 12.9556 129.905 21.3616L114.934 38.9531C108.02 33.0689 99.7316 29.0265 90.8381 27.2009C81.9447 25.3753 72.7342 25.8258 64.0614 28.5105C55.3885 31.1952 47.5343 36.0271 41.2276 42.5579C34.9209 49.0887 30.366 57.1067 27.9856 65.868C25.6052 74.6293 25.4765 83.8498 27.6113 92.6742C29.7461 101.498 34.0754 109.641 40.1973 116.345C46.3192 123.049 54.0354 128.099 62.6299 131.024C71.2244 133.95 80.4187 134.658 89.3596 133.081L93.3709 155.83Z"/>
</mask>
<path d="M93.3709 155.83C80.5981 158.082 67.4634 157.072 55.1855 152.892C42.9077 148.712 31.8845 141.499 23.1389 131.921C14.3934 122.344 8.20875 110.712 5.159 98.1059C2.10925 85.4998 2.29319 72.3275 5.69373 59.8114C9.09428 47.2953 15.6013 35.841 24.6108 26.5113C33.6204 17.1816 44.8407 10.2788 57.2305 6.44356C69.6203 2.60828 82.7781 1.96476 95.483 4.57271C108.188 7.18066 120.028 12.9556 129.905 21.3616L114.934 38.9531C108.02 33.0689 99.7316 29.0265 90.8381 27.2009C81.9447 25.3753 72.7342 25.8258 64.0614 28.5105C55.3885 31.1952 47.5343 36.0271 41.2276 42.5579C34.9209 49.0887 30.366 57.1067 27.9856 65.868C25.6052 74.6293 25.4765 83.8498 27.6113 92.6742C29.7461 101.498 34.0754 109.641 40.1973 116.345C46.3192 123.049 54.0354 128.099 62.6299 131.024C71.2244 133.95 80.4187 134.658 89.3596 133.081L93.3709 155.83Z" fill="#0E5FD9"/>
<path d="M93.3709 155.83C80.5981 158.082 67.4634 157.072 55.1855 152.892C42.9077 148.712 31.8845 141.499 23.1389 131.921C14.3934 122.344 8.20875 110.712 5.159 98.1059C2.10925 85.4998 2.29319 72.3275 5.69373 59.8114C9.09428 47.2953 15.6013 35.841 24.6108 26.5113C33.6204 17.1816 44.8407 10.2788 57.2305 6.44356C69.6203 2.60828 82.7781 1.96476 95.483 4.57271C108.188 7.18066 120.028 12.9556 129.905 21.3616L114.934 38.9531C108.02 33.0689 99.7316 29.0265 90.8381 27.2009C81.9447 25.3753 72.7342 25.8258 64.0614 28.5105C55.3885 31.1952 47.5343 36.0271 41.2276 42.5579C34.9209 49.0887 30.366 57.1067 27.9856 65.868C25.6052 74.6293 25.4765 83.8498 27.6113 92.6742C29.7461 101.498 34.0754 109.641 40.1973 116.345C46.3192 123.049 54.0354 128.099 62.6299 131.024C71.2244 133.95 80.4187 134.658 89.3596 133.081L93.3709 155.83Z" stroke="white" stroke-width="6" mask="url(#path-3-outside-3_2023_23796)"/>
</svg>
