<svg width="20" height="20" viewBox="0 0 20 20" fill="none" xmlns="http://www.w3.org/2000/svg">
<path opacity="0.2" d="M16.2478 9.02643V16.2499M16.2478 9.02643L16.2478 9.02642L16.2478 16.2499M16.2478 9.02643L9.99737 3.344L3.7478 9.02641V16.2499M16.2478 9.02643L3.7478 16.2499M16.2478 16.2499L12.4973 16.2494V11.8743V11.2493H11.8723H8.12235H7.49735V11.8743V16.2494L3.7478 16.2499M16.2478 16.2499H3.7478" fill="#005CE8" stroke="#005CE8" stroke-width="1.25"/>
<path d="M16.8728 16.875V9.02643C16.8728 8.93935 16.8546 8.85323 16.8194 8.77359C16.7841 8.69395 16.7327 8.62256 16.6682 8.56398L10.4178 2.88155C10.3028 2.77695 10.1528 2.719 9.99735 2.719C9.84186 2.71901 9.69196 2.77697 9.57691 2.88158L3.32734 8.56398C3.26292 8.62256 3.21144 8.69395 3.17622 8.77359C3.141 8.85322 3.1228 8.93933 3.1228 9.02641V16.875" stroke="#005CE8" stroke-width="1.25" stroke-linecap="round" stroke-linejoin="round"/>
<path d="M1.2478 16.875H18.7478" stroke="#005CE8" stroke-width="1.25" stroke-linecap="round" stroke-linejoin="round"/>
<path d="M11.8723 16.8743V12.4993C11.8723 12.3336 11.8064 12.1746 11.6892 12.0574C11.572 11.9402 11.413 11.8743 11.2473 11.8743H8.74727C8.58151 11.8743 8.42254 11.9402 8.30533 12.0574C8.18812 12.1746 8.12227 12.3336 8.12227 12.4993V16.8743" stroke="#005CE8" stroke-width="1.25" stroke-linecap="round" stroke-linejoin="round"/>
</svg>
