<svg width="16" height="16" viewBox="0 0 16 16" fill="none" xmlns="http://www.w3.org/2000/svg">
<path fill-rule="evenodd" clip-rule="evenodd" d="M5.441 1.72524C4.38165 1.60684 3.28507 1.60684 2.22572 1.72524C1.96831 1.75401 1.76531 1.95783 1.73636 2.20538C1.60985 3.287 1.60985 4.37967 1.73636 5.46129C1.76531 5.70884 1.96831 5.91266 2.22572 5.94143C3.28507 6.05983 4.38165 6.05983 5.441 5.94143C5.69841 5.91266 5.90141 5.70884 5.93036 5.46129C6.05687 4.37967 6.05687 3.287 5.93036 2.20538C5.90141 1.95783 5.69841 1.75401 5.441 1.72524ZM2.08688 0.482971C3.2385 0.354261 4.42822 0.354261 5.57984 0.482971C6.40554 0.575255 7.07425 1.22524 7.1719 2.06017C7.30969 3.23826 7.30969 4.4284 7.1719 5.6065C7.07425 6.44142 6.40554 7.09141 5.57984 7.1837C4.42822 7.31241 3.2385 7.31241 2.08688 7.1837C1.26118 7.09141 0.592473 6.44142 0.494821 5.6065C0.357032 4.4284 0.357032 3.23826 0.494821 2.06017C0.592473 1.22524 1.26118 0.575256 2.08688 0.482971Z" fill="#4A5154"/>
<path fill-rule="evenodd" clip-rule="evenodd" d="M5.441 10.0586C4.38165 9.94017 3.28507 9.94017 2.22572 10.0586C1.96831 10.0873 1.76531 10.2912 1.73636 10.5387C1.60985 11.6203 1.60985 12.713 1.73636 13.7946C1.76531 14.0422 1.96831 14.246 2.22572 14.2748C3.28507 14.3932 4.38165 14.3932 5.441 14.2748C5.69841 14.246 5.90141 14.0422 5.93036 13.7946C6.05687 12.713 6.05687 11.6203 5.93036 10.5387C5.90141 10.2912 5.69841 10.0873 5.441 10.0586ZM2.08688 8.81631C3.2385 8.68759 4.42822 8.68759 5.57984 8.81631C6.40554 8.90859 7.07425 9.55858 7.1719 10.3935C7.30969 11.5716 7.30969 12.7617 7.1719 13.9398C7.07425 14.7748 6.40554 15.4247 5.57984 15.517C4.42822 15.6457 3.2385 15.6457 2.08688 15.517C1.26118 15.4247 0.592473 14.7748 0.494821 13.9398C0.357032 12.7617 0.357032 11.5716 0.494821 10.3935C0.592473 9.55858 1.26118 8.90859 2.08688 8.81631Z" fill="#4A5154"/>
<path fill-rule="evenodd" clip-rule="evenodd" d="M13.7743 1.72524C12.715 1.60684 11.6184 1.60684 10.5591 1.72524C10.3016 1.75401 10.0986 1.95783 10.0697 2.20538C9.94319 3.287 9.94319 4.37967 10.0697 5.46129C10.0986 5.70884 10.3016 5.91266 10.5591 5.94143C11.6184 6.05983 12.715 6.05983 13.7743 5.94143C14.0317 5.91266 14.2347 5.70884 14.2637 5.46129C14.3902 4.37967 14.3902 3.287 14.2637 2.20538C14.2347 1.95783 14.0317 1.75401 13.7743 1.72524ZM10.4202 0.482971C11.5718 0.354261 12.7616 0.354261 13.9132 0.482971C14.7389 0.575255 15.4076 1.22524 15.5052 2.06017C15.643 3.23826 15.643 4.4284 15.5052 5.6065C15.4076 6.44142 14.7389 7.09141 13.9132 7.1837C12.7616 7.31241 11.5718 7.31241 10.4202 7.1837C9.59451 7.09141 8.92581 6.44142 8.82815 5.6065C8.69036 4.4284 8.69036 3.23826 8.82815 2.06017C8.92581 1.22524 9.59451 0.575256 10.4202 0.482971Z" fill="#4A5154"/>
<path fill-rule="evenodd" clip-rule="evenodd" d="M13.7743 10.0586C12.715 9.94017 11.6184 9.94017 10.5591 10.0586C10.3016 10.0873 10.0986 10.2912 10.0697 10.5387C9.94319 11.6203 9.94319 12.713 10.0697 13.7946C10.0986 14.0422 10.3016 14.246 10.5591 14.2748C11.6184 14.3932 12.715 14.3932 13.7743 14.2748C14.0317 14.246 14.2347 14.0422 14.2637 13.7946C14.3902 12.713 14.3902 11.6203 14.2637 10.5387C14.2347 10.2912 14.0317 10.0873 13.7743 10.0586ZM10.4202 8.81631C11.5718 8.68759 12.7616 8.68759 13.9132 8.81631C14.7389 8.90859 15.4076 9.55858 15.5052 10.3935C15.643 11.5716 15.643 12.7617 15.5052 13.9398C15.4076 14.7748 14.7389 15.4247 13.9132 15.517C12.7616 15.6457 11.5718 15.6457 10.4202 15.517C9.59451 15.4247 8.92581 14.7748 8.82815 13.9398C8.69036 12.7617 8.69036 11.5716 8.82815 10.3935C8.92581 9.55858 9.59451 8.90859 10.4202 8.81631Z" fill="#4A5154"/>
</svg>
