<svg width="20" height="20" viewBox="0 0 20 20" fill="none" xmlns="http://www.w3.org/2000/svg">
<path d="M4.99997 16.875C4.91789 16.875 4.83662 16.8588 4.76079 16.8274C4.68496 16.796 4.61606 16.75 4.55802 16.6919C4.49999 16.6339 4.45395 16.565 4.42254 16.4892C4.39113 16.4133 4.37497 16.3321 4.37497 16.25L4.37501 12.9145C4.04159 13.0724 3.67365 13.1434 3.30541 13.1209C2.93717 13.0985 2.58059 12.9832 2.26885 12.7859C1.95711 12.5886 1.70033 12.3157 1.5224 11.9925C1.34447 11.6693 1.25116 11.3064 1.25116 10.9375C1.25116 10.5686 1.34447 10.2056 1.5224 9.88245C1.70033 9.55927 1.95711 9.28634 2.26885 9.08905C2.58059 8.89176 2.93717 8.77652 3.30541 8.75405C3.67365 8.73158 4.04159 8.8026 4.37501 8.96052L4.37497 5.625C4.37497 5.54292 4.39113 5.46164 4.42254 5.38581C4.45395 5.30998 4.49999 5.24108 4.55803 5.18305C4.61606 5.12501 4.68497 5.07897 4.7608 5.04756C4.83663 5.01615 4.9179 4.99999 4.99998 4.99999L8.64799 5.00003C8.49007 4.66661 8.41905 4.29867 8.44152 3.93043C8.464 3.56219 8.57924 3.20562 8.77653 2.89388C8.97381 2.58214 9.24674 2.32536 9.56992 2.14743C9.8931 1.9695 10.256 1.87619 10.625 1.87619C10.9939 1.87619 11.3568 1.9695 11.68 2.14743C12.0032 2.32536 12.2761 2.58214 12.4734 2.89388C12.6707 3.20562 12.7859 3.56219 12.8084 3.93043C12.8309 4.29867 12.7598 4.66661 12.6019 5.00003L16.2499 4.99999C16.4157 4.99999 16.5747 5.06583 16.6919 5.18304C16.8091 5.30025 16.8749 5.45922 16.8749 5.62498L16.875 8.96052C16.5416 8.8026 16.1736 8.73158 15.8054 8.75405C15.4371 8.77652 15.0806 8.89176 14.7688 9.08905C14.4571 9.28634 14.2003 9.55927 14.0224 9.88245C13.8444 10.2056 13.7511 10.5686 13.7511 10.9375C13.7511 11.3064 13.8444 11.6693 14.0224 11.9925C14.2003 12.3157 14.4571 12.5886 14.7688 12.7859C15.0806 12.9832 15.4371 13.0985 15.8054 13.1209C16.1736 13.1434 16.5416 13.0724 16.875 12.9145L16.8749 16.25C16.8749 16.4158 16.8091 16.5747 16.6919 16.6919C16.5747 16.8091 16.4157 16.875 16.2499 16.875L4.99997 16.875Z" stroke="#626C70" stroke-width="1.25" stroke-linecap="round" stroke-linejoin="round"/>
</svg>
