<svg width="18" height="12" viewBox="0 0 18 12" fill="none" xmlns="http://www.w3.org/2000/svg">
<path fill-rule="evenodd" clip-rule="evenodd" d="M7.48911 5.46813C7.93409 5.2724 8.32074 4.95332 8.6082 4.54461C8.87243 4.11056 9.00369 3.60109 8.98414 3.08546C9.00128 2.61524 8.91447 2.14727 8.7306 1.71865C8.57612 1.34732 8.32815 1.02789 8.01368 0.795138C7.68027 0.553152 7.30167 0.389403 6.90334 0.31491C6.43194 0.210472 5.95112 0.160922 5.4695 0.167147H0.5C0.361929 0.167147 0.25 0.279076 0.25 0.417147V11.535C0.25 11.6731 0.361929 11.785 0.5 11.785H5.58316C6.06987 11.7854 6.55463 11.7202 7.02574 11.591C7.47227 11.469 7.89532 11.2659 8.27597 10.9908C8.64469 10.7208 8.94493 10.3593 9.15026 9.93795C9.37749 9.46676 9.48874 8.94271 9.47374 8.41415C9.4903 7.75913 9.31637 7.11449 8.9754 6.56711C8.60871 6.01663 8.06485 5.62597 7.44539 5.46813H7.48911ZM2.79165 2.04163C2.6996 2.04163 2.62498 2.11625 2.62498 2.20829V4.79163C2.62498 4.88367 2.6996 4.95829 2.79165 4.95829H5.12498C5.9304 4.95829 6.58331 4.30538 6.58331 3.49996C6.58331 2.69454 5.9304 2.04163 5.12498 2.04163H2.79165ZM2.62498 6.58329C2.62498 6.49125 2.6996 6.41663 2.79165 6.41663H5.22915C6.20715 6.41663 6.99998 7.20946 6.99998 8.18746C6.99998 9.16546 6.20715 9.95829 5.22915 9.95829H2.79165C2.6996 9.95829 2.62498 9.88367 2.62498 9.79163V6.58329Z" fill="#053EFF"/>
<path d="M11.8658 0.758197H15.8017C15.9385 0.758197 16.0499 0.868091 16.0517 1.00484L16.0625 1.807C16.0644 1.94637 15.9519 2.06035 15.8125 2.06035H11.8658C11.7277 2.06035 11.6158 1.94843 11.6158 1.81035V1.0082C11.6158 0.870126 11.7277 0.758197 11.8658 0.758197Z" fill="#053EFF"/>
<path fill-rule="evenodd" clip-rule="evenodd" d="M13.9763 10.058C14.3795 10.071 14.7766 9.95166 15.1129 9.7163C15.3295 9.57212 15.5019 9.3662 15.6111 9.12343C15.64 9.05916 15.702 9.01443 15.7725 9.01443H17.3733C17.4819 9.01443 17.5615 9.11662 17.5295 9.22034C17.2855 10.0112 16.8069 10.7007 16.1621 11.1847C15.4688 11.6332 14.6665 11.8579 13.8539 11.8312C13.2748 11.8416 12.6991 11.735 12.1578 11.5172C11.6724 11.3138 11.2362 10.9983 10.8813 10.5936C10.5383 10.1815 10.2768 9.70109 10.112 9.18066C9.91796 8.60596 9.8232 7.99912 9.8322 7.38904C9.82687 6.7875 9.92462 6.18991 10.1207 5.62513C10.3035 5.10197 10.5862 4.62414 10.9513 4.22138C11.3174 3.82652 11.7543 3.51258 12.2365 3.29787C12.7631 3.06794 13.3279 2.95176 13.8976 2.95616C14.5035 2.94628 15.1028 3.08873 15.6462 3.37175C16.1346 3.64041 16.5591 4.02246 16.8877 4.4892C17.2142 4.97038 17.4515 5.51248 17.5871 6.08688C17.7273 6.69065 17.7775 7.31382 17.7358 7.93392H11.948C11.9224 8.52945 12.1167 9.11221 12.49 9.55931C12.692 9.746 12.9282 9.88665 13.1839 9.97246C13.4397 10.0583 13.7094 10.0874 13.9763 10.058ZM12 6.3323C12 6.37887 12.0377 6.41663 12.0843 6.41663H15.4573C15.5039 6.41663 15.5416 6.37887 15.5416 6.3323C15.5416 5.40087 14.7866 4.64579 13.8551 4.64579H13.6865C12.7551 4.64579 12 5.40087 12 6.3323Z" fill="#053EFF"/>
</svg>
