<svg width="20" height="20" viewBox="0 0 20 20" fill="none" xmlns="http://www.w3.org/2000/svg">
<path d="M2.86487 13.5194L4.7545 2.80273C4.78329 2.63949 4.87574 2.49436 5.01152 2.39929C5.1473 2.30421 5.31529 2.26697 5.47854 2.29575L9.78707 3.05546C9.95031 3.08425 10.0954 3.1767 10.1905 3.31248C10.2856 3.44827 10.3228 3.61626 10.294 3.7795L8.39476 14.5508C8.26688 15.2761 7.85966 15.9222 7.26056 16.3505C6.66147 16.7787 5.9183 16.9549 5.19071 16.8412C3.63269 16.5971 2.59102 15.0724 2.86487 13.5194Z" stroke="#626C70" stroke-width="1.25" stroke-linecap="round" stroke-linejoin="round"/>
<path d="M9.24068 9.75353L14.9409 7.67881C15.0967 7.62211 15.2686 7.62962 15.4188 7.69967C15.5691 7.76972 15.6853 7.89659 15.742 8.05235L17.2383 12.1635C17.2664 12.2406 17.279 12.3225 17.2754 12.4045C17.2719 12.4865 17.2522 12.567 17.2175 12.6414C17.1828 12.7158 17.1338 12.7826 17.0733 12.8381C17.0128 12.8935 16.9419 12.9365 16.8648 12.9646L6.58691 16.7054" stroke="#626C70" stroke-width="1.25" stroke-linecap="round" stroke-linejoin="round"/>
<path d="M17.1875 12.6978V16.2499C17.1875 16.4157 17.1216 16.5747 17.0044 16.6919C16.8872 16.8091 16.7282 16.8749 16.5625 16.8749H5.62497" stroke="#626C70" stroke-width="1.25" stroke-linecap="round" stroke-linejoin="round"/>
<path d="M5.625 15C6.14277 15 6.5625 14.5803 6.5625 14.0625C6.5625 13.5447 6.14277 13.125 5.625 13.125C5.10723 13.125 4.6875 13.5447 4.6875 14.0625C4.6875 14.5803 5.10723 15 5.625 15Z" fill="#626C70"/>
</svg>
