<svg width="40" height="40" viewBox="0 0 40 40" fill="none" xmlns="http://www.w3.org/2000/svg">
<rect y="40" width="40" height="40" rx="20" transform="rotate(-90 0 40)" fill="#F5F6F7"/>
<path d="M20 25.5C19.7239 25.5 19.5 25.2761 19.5 25C19.5 24.7239 19.7239 24.5 20 24.5C20.2761 24.5 20.5 24.7239 20.5 25C20.5 25.2761 20.2761 25.5 20 25.5ZM20 20.5C19.7239 20.5 19.5 20.2761 19.5 20C19.5 19.7239 19.7239 19.5 20 19.5C20.2761 19.5 20.5 19.7239 20.5 20C20.5 20.2761 20.2761 20.5 20 20.5ZM20 15.5C19.7239 15.5 19.5 15.2761 19.5 15C19.5 14.7239 19.7239 14.5 20 14.5C20.2761 14.5 20.5 14.7239 20.5 15C20.5 15.2761 20.2761 15.5 20 15.5Z" fill="#191B1C" stroke="#191B1C" stroke-width="1.5"/>
</svg>
