<svg width="20" height="20" viewBox="0 0 20 20" fill="none" xmlns="http://www.w3.org/2000/svg">
<path d="M10.6249 5.8335C10.6249 5.48832 10.3451 5.2085 9.99992 5.2085C9.65474 5.2085 9.37492 5.48832 9.37492 5.8335V10.0002C9.37492 10.2157 9.48593 10.4159 9.66867 10.5302L12.1687 12.0927C12.4614 12.2756 12.847 12.1866 13.0299 11.8939C13.2129 11.6012 13.1239 11.2156 12.8312 11.0327L10.6249 9.65376V5.8335Z" fill="#4A5154"/>
<path fill-rule="evenodd" clip-rule="evenodd" d="M9.99992 2.7085C5.97284 2.7085 2.70825 5.97309 2.70825 10.0002C2.70825 14.0272 5.97284 17.2918 9.99992 17.2918C14.027 17.2918 17.2916 14.0272 17.2916 10.0002C17.2916 5.97309 14.027 2.7085 9.99992 2.7085ZM3.95825 10.0002C3.95825 6.66344 6.6632 3.9585 9.99992 3.9585C13.3366 3.9585 16.0416 6.66344 16.0416 10.0002C16.0416 13.3369 13.3366 16.0418 9.99992 16.0418C6.6632 16.0418 3.95825 13.3369 3.95825 10.0002Z" fill="#4A5154"/>
</svg>
