<svg width="1086" height="237" viewBox="0 0 1086 237" fill="none" xmlns="http://www.w3.org/2000/svg">
<path d="M116.76 97.7157C97.8 95.9772 78.6 53.974 59.64 31.5121C44.6434 13.8573 26.4292 6.82958 3 3V237H1083V101.054C1066.11 83.1038 1049.43 63.2988 1026.36 51.1923C1007.4 41.2479 988.2 41.2479 969.24 47.5066C950.16 53.7654 931.44 66.2829 912.6 73.7239C893.76 81.0953 875.04 83.4597 855.96 75.8796C837 68.3691 817.8 50.9837 798.84 39.5094C779.76 28.035 761.04 22.4717 741.96 37.7708C723 53.07 703.8 89.2316 684.84 95.4904C665.76 101.749 647.04 78.105 628.2 71.2899C609.36 64.4053 590.64 74.4193 571.56 70.2468C552.6 66.0743 533.4 47.7153 514.44 50.4274C495.36 53.07 476.64 76.7141 457.8 87.6322C438.96 98.4807 420.24 96.6726 401.16 100.706C382.2 104.739 363 114.753 344.04 121.012C324.96 127.271 306.24 129.774 287.16 122.82C268.2 115.866 249 99.4542 230.04 81.0953C210.96 62.8058 192.24 42.6387 173.4 51.8182C154.56 60.9282 135.84 99.4543 116.76 97.7157Z" fill="url(#paint0_linear_2023_24893)"/>
<path d="M3 3C26.4292 6.82958 44.6434 13.8573 59.64 31.5121C78.6 53.974 97.8 95.9772 116.76 97.7157C135.84 99.4543 154.56 60.9282 173.4 51.8182C192.24 42.6387 210.96 62.8058 230.04 81.0953C249 99.4542 268.2 115.866 287.16 122.82C306.24 129.774 324.96 127.271 344.04 121.012C363 114.753 382.2 104.739 401.16 100.706C420.24 96.6726 438.96 98.4807 457.8 87.6322C476.64 76.7141 495.36 53.07 514.44 50.4274C533.4 47.7153 552.6 66.0743 571.56 70.2468C590.64 74.4193 609.36 64.4053 628.2 71.2899C647.04 78.105 665.76 101.749 684.84 95.4904C703.8 89.2316 723 53.07 741.96 37.7708C761.04 22.4717 779.76 28.035 798.84 39.5094C817.8 50.9837 837 68.3691 855.96 75.8796C875.04 83.4597 893.76 81.0953 912.6 73.7239C931.44 66.2829 950.16 53.7654 969.24 47.5066C988.2 41.2479 1007.4 41.2479 1026.36 51.1923C1049.43 63.2988 1066.11 83.1038 1083 101.054" stroke="#0E5FD9" stroke-width="5" stroke-linecap="round"/>
<defs>
<linearGradient id="paint0_linear_2023_24893" x1="543" y1="3" x2="543" y2="237" gradientUnits="userSpaceOnUse">
<stop stop-color="#CFDFF7"/>
<stop offset="1" stop-color="#CFDFF7" stop-opacity="0"/>
</linearGradient>
</defs>
</svg>
