<svg width="1164" height="336" viewBox="0 0 1164 336" fill="none" xmlns="http://www.w3.org/2000/svg">
<path d="M30.792 300.324H31.902V309H30.912L26.256 302.16V309H25.146V300.324H26.208L30.792 307.068V300.324ZM36.3488 309.12C35.4888 309.12 34.7988 308.846 34.2788 308.298C33.7588 307.75 33.4988 306.958 33.4988 305.922C33.4988 305.274 33.6088 304.706 33.8288 304.218C34.0488 303.73 34.3708 303.352 34.7948 303.084C35.2188 302.812 35.7368 302.676 36.3488 302.676C37.2048 302.676 37.8888 302.956 38.4008 303.516C38.9128 304.076 39.1688 304.878 39.1688 305.922C39.1688 306.554 39.0608 307.11 38.8448 307.59C38.6328 308.07 38.3168 308.446 37.8968 308.718C37.4808 308.986 36.9648 309.12 36.3488 309.12ZM36.3488 308.244C36.9048 308.244 37.3308 308.036 37.6268 307.62C37.9228 307.2 38.0708 306.626 38.0708 305.898C38.0708 305.454 38.0108 305.056 37.8908 304.704C37.7748 304.348 37.5908 304.066 37.3388 303.858C37.0868 303.65 36.7568 303.546 36.3488 303.546C35.7848 303.546 35.3528 303.754 35.0528 304.17C34.7528 304.582 34.6028 305.158 34.6028 305.898C34.6028 306.334 34.6628 306.73 34.7828 307.086C34.9028 307.442 35.0908 307.724 35.3468 307.932C35.6028 308.14 35.9368 308.244 36.3488 308.244ZM45.2933 302.796L43.0553 309H42.0473L39.8033 302.796H40.8473L42.4973 307.608H42.5993L44.2553 302.796H45.2933ZM47.0498 306.156C47.0498 306.548 47.1138 306.904 47.2418 307.224C47.3738 307.54 47.5718 307.792 47.8358 307.98C48.1038 308.168 48.4378 308.262 48.8378 308.262C49.2338 308.262 49.5738 308.17 49.8578 307.986C50.1458 307.802 50.3298 307.536 50.4098 307.188H51.4598C51.3838 307.608 51.2158 307.962 50.9558 308.25C50.6958 308.538 50.3818 308.756 50.0138 308.904C49.6458 309.048 49.2618 309.12 48.8618 309.12C48.2818 309.12 47.7718 308.994 47.3318 308.742C46.8918 308.49 46.5478 308.128 46.2998 307.656C46.0518 307.184 45.9278 306.618 45.9278 305.958C45.9278 305.306 46.0398 304.734 46.2638 304.242C46.4878 303.75 46.8118 303.366 47.2358 303.09C47.6638 302.814 48.1778 302.676 48.7778 302.676C49.6538 302.676 50.3258 302.954 50.7938 303.51C51.2618 304.062 51.4958 304.808 51.4958 305.748V306.156H47.0498ZM47.0558 305.406H50.4278C50.4278 304.874 50.2918 304.426 50.0198 304.062C49.7478 303.698 49.3318 303.516 48.7718 303.516C48.3838 303.516 48.0618 303.61 47.8058 303.798C47.5498 303.982 47.3598 304.22 47.2358 304.512C47.1118 304.8 47.0518 305.098 47.0558 305.406ZM53.0196 309V302.796H54.0876V303.696C54.2596 303.42 54.4936 303.182 54.7896 302.982C55.0896 302.778 55.4816 302.676 55.9656 302.676C56.3056 302.676 56.6476 302.762 56.9916 302.934C57.3356 303.106 57.5896 303.358 57.7536 303.69C57.9456 303.386 58.2056 303.142 58.5336 302.958C58.8616 302.77 59.2316 302.676 59.6436 302.676C59.8596 302.676 60.0856 302.71 60.3216 302.778C60.5576 302.842 60.7776 302.958 60.9816 303.126C61.1856 303.29 61.3496 303.52 61.4736 303.816C61.6016 304.108 61.6656 304.484 61.6656 304.944V309H60.5496V305.052C60.5496 304.676 60.4896 304.384 60.3696 304.176C60.2496 303.968 60.0916 303.824 59.8956 303.744C59.7036 303.66 59.4976 303.618 59.2776 303.618C59.0856 303.618 58.8816 303.656 58.6656 303.732C58.4496 303.808 58.2656 303.936 58.1136 304.116C57.9616 304.296 57.8856 304.542 57.8856 304.854V309H56.7816V304.728C56.7816 304.484 56.7156 304.28 56.5836 304.116C56.4556 303.948 56.2936 303.824 56.0976 303.744C55.9056 303.66 55.7136 303.618 55.5216 303.618C55.3096 303.618 55.0956 303.662 54.8796 303.75C54.6676 303.834 54.4876 303.966 54.3396 304.146C54.1956 304.326 54.1236 304.562 54.1236 304.854V309H53.0196ZM66.4684 309.12C65.9844 309.12 65.5984 309.038 65.3104 308.874C65.0224 308.71 64.8064 308.518 64.6624 308.298C64.5184 308.078 64.4204 307.888 64.3684 307.728L64.2484 309H63.4024V300.084H64.5184V303.78C64.5864 303.644 64.7044 303.49 64.8724 303.318C65.0404 303.146 65.2624 302.996 65.5384 302.868C65.8184 302.74 66.1564 302.676 66.5524 302.676C67.3284 302.676 67.9444 302.946 68.4004 303.486C68.8604 304.026 69.0904 304.822 69.0904 305.874C69.0904 306.85 68.8704 307.636 68.4304 308.232C67.9944 308.824 67.3404 309.12 66.4684 309.12ZM66.2704 308.268C66.7704 308.268 67.1784 308.074 67.4944 307.686C67.8144 307.294 67.9744 306.672 67.9744 305.82C67.9744 305.096 67.8264 304.536 67.5304 304.14C67.2384 303.74 66.8104 303.54 66.2464 303.54C65.6304 303.54 65.1904 303.74 64.9264 304.14C64.6624 304.536 64.5264 305.096 64.5184 305.82C64.5184 306.688 64.6524 307.314 64.9204 307.698C65.1924 308.078 65.6424 308.268 66.2704 308.268ZM71.3311 306.156C71.3311 306.548 71.3951 306.904 71.5231 307.224C71.6551 307.54 71.8531 307.792 72.1171 307.98C72.3851 308.168 72.7191 308.262 73.1191 308.262C73.5151 308.262 73.8551 308.17 74.1391 307.986C74.4271 307.802 74.6111 307.536 74.6911 307.188H75.7411C75.6651 307.608 75.4971 307.962 75.2371 308.25C74.9771 308.538 74.6631 308.756 74.2951 308.904C73.9271 309.048 73.5431 309.12 73.1431 309.12C72.5631 309.12 72.0531 308.994 71.6131 308.742C71.1731 308.49 70.8291 308.128 70.5811 307.656C70.3331 307.184 70.2091 306.618 70.2091 305.958C70.2091 305.306 70.3211 304.734 70.5451 304.242C70.7691 303.75 71.0931 303.366 71.5171 303.09C71.9451 302.814 72.4591 302.676 73.0591 302.676C73.9351 302.676 74.6071 302.954 75.0751 303.51C75.5431 304.062 75.7771 304.808 75.7771 305.748V306.156H71.3311ZM71.3371 305.406H74.7091C74.7091 304.874 74.5731 304.426 74.3011 304.062C74.0291 303.698 73.6131 303.516 73.0531 303.516C72.6651 303.516 72.3431 303.61 72.0871 303.798C71.8311 303.982 71.6411 304.22 71.5171 304.512C71.3931 304.8 71.3331 305.098 71.3371 305.406ZM77.3008 309V302.796H78.3568V303.99C78.5128 303.546 78.7588 303.216 79.0948 303C79.4348 302.784 79.8008 302.676 80.1928 302.676C80.2848 302.676 80.3728 302.682 80.4568 302.694C80.5448 302.706 80.6148 302.726 80.6668 302.754V303.828C80.6068 303.8 80.5288 303.782 80.4328 303.774C80.3408 303.762 80.2628 303.756 80.1988 303.756C79.7068 303.724 79.2848 303.818 78.9328 304.038C78.5808 304.258 78.4048 304.626 78.4048 305.142V309H77.3008ZM87.4788 300.204C88.4148 300.204 89.1628 300.582 89.7228 301.338C90.2828 302.09 90.5628 303.204 90.5628 304.68C90.5628 306.152 90.2848 307.262 89.7288 308.01C89.1728 308.758 88.4188 309.132 87.4668 309.132C86.5188 309.132 85.7668 308.76 85.2108 308.016C84.6548 307.268 84.3768 306.162 84.3768 304.698C84.3768 303.214 84.6568 302.094 85.2168 301.338C85.7808 300.582 86.5348 300.204 87.4788 300.204ZM87.4788 308.172C88.0988 308.172 88.5668 307.9 88.8828 307.356C89.2028 306.812 89.3628 305.922 89.3628 304.686C89.3628 303.43 89.2008 302.526 88.8768 301.974C88.5528 301.418 88.0848 301.14 87.4728 301.14C86.8608 301.14 86.3888 301.42 86.0568 301.98C85.7288 302.536 85.5648 303.438 85.5648 304.686C85.5648 305.914 85.7288 306.802 86.0568 307.35C86.3848 307.898 86.8588 308.172 87.4788 308.172ZM93.3804 309V302.094H91.7064V301.368C92.2224 301.368 92.6244 301.33 92.9124 301.254C93.2044 301.178 93.4104 301.062 93.5304 300.906C93.6544 300.75 93.7224 300.556 93.7344 300.324H94.5264V309H93.3804Z" fill="#B0B7BA"/>
<path d="M377.608 300.324H378.718V309H377.728L373.072 302.16V309H371.962V300.324H373.024L377.608 307.068V300.324ZM383.165 309.12C382.305 309.12 381.615 308.846 381.095 308.298C380.575 307.75 380.315 306.958 380.315 305.922C380.315 305.274 380.425 304.706 380.645 304.218C380.865 303.73 381.187 303.352 381.611 303.084C382.035 302.812 382.553 302.676 383.165 302.676C384.021 302.676 384.705 302.956 385.217 303.516C385.729 304.076 385.985 304.878 385.985 305.922C385.985 306.554 385.877 307.11 385.661 307.59C385.449 308.07 385.133 308.446 384.713 308.718C384.297 308.986 383.781 309.12 383.165 309.12ZM383.165 308.244C383.721 308.244 384.147 308.036 384.443 307.62C384.739 307.2 384.887 306.626 384.887 305.898C384.887 305.454 384.827 305.056 384.707 304.704C384.591 304.348 384.407 304.066 384.155 303.858C383.903 303.65 383.573 303.546 383.165 303.546C382.601 303.546 382.169 303.754 381.869 304.17C381.569 304.582 381.419 305.158 381.419 305.898C381.419 306.334 381.479 306.73 381.599 307.086C381.719 307.442 381.907 307.724 382.163 307.932C382.419 308.14 382.753 308.244 383.165 308.244ZM392.109 302.796L389.871 309H388.863L386.619 302.796H387.663L389.313 307.608H389.415L391.071 302.796H392.109ZM393.866 306.156C393.866 306.548 393.93 306.904 394.058 307.224C394.19 307.54 394.388 307.792 394.652 307.98C394.92 308.168 395.254 308.262 395.654 308.262C396.05 308.262 396.39 308.17 396.674 307.986C396.962 307.802 397.146 307.536 397.226 307.188H398.276C398.2 307.608 398.032 307.962 397.772 308.25C397.512 308.538 397.198 308.756 396.83 308.904C396.462 309.048 396.078 309.12 395.678 309.12C395.098 309.12 394.588 308.994 394.148 308.742C393.708 308.49 393.364 308.128 393.116 307.656C392.868 307.184 392.744 306.618 392.744 305.958C392.744 305.306 392.856 304.734 393.08 304.242C393.304 303.75 393.628 303.366 394.052 303.09C394.48 302.814 394.994 302.676 395.594 302.676C396.47 302.676 397.142 302.954 397.61 303.51C398.078 304.062 398.312 304.808 398.312 305.748V306.156H393.866ZM393.872 305.406H397.244C397.244 304.874 397.108 304.426 396.836 304.062C396.564 303.698 396.148 303.516 395.588 303.516C395.2 303.516 394.878 303.61 394.622 303.798C394.366 303.982 394.176 304.22 394.052 304.512C393.928 304.8 393.868 305.098 393.872 305.406ZM399.835 309V302.796H400.903V303.696C401.075 303.42 401.309 303.182 401.605 302.982C401.905 302.778 402.297 302.676 402.781 302.676C403.121 302.676 403.463 302.762 403.807 302.934C404.151 303.106 404.405 303.358 404.569 303.69C404.761 303.386 405.021 303.142 405.349 302.958C405.677 302.77 406.047 302.676 406.459 302.676C406.675 302.676 406.901 302.71 407.137 302.778C407.373 302.842 407.593 302.958 407.797 303.126C408.001 303.29 408.165 303.52 408.289 303.816C408.417 304.108 408.481 304.484 408.481 304.944V309H407.365V305.052C407.365 304.676 407.305 304.384 407.185 304.176C407.065 303.968 406.907 303.824 406.711 303.744C406.519 303.66 406.313 303.618 406.093 303.618C405.901 303.618 405.697 303.656 405.481 303.732C405.265 303.808 405.081 303.936 404.929 304.116C404.777 304.296 404.701 304.542 404.701 304.854V309H403.597V304.728C403.597 304.484 403.531 304.28 403.399 304.116C403.271 303.948 403.109 303.824 402.913 303.744C402.721 303.66 402.529 303.618 402.337 303.618C402.125 303.618 401.911 303.662 401.695 303.75C401.483 303.834 401.303 303.966 401.155 304.146C401.011 304.326 400.939 304.562 400.939 304.854V309H399.835ZM413.284 309.12C412.8 309.12 412.414 309.038 412.126 308.874C411.838 308.71 411.622 308.518 411.478 308.298C411.334 308.078 411.236 307.888 411.184 307.728L411.064 309H410.218V300.084H411.334V303.78C411.402 303.644 411.52 303.49 411.688 303.318C411.856 303.146 412.078 302.996 412.354 302.868C412.634 302.74 412.972 302.676 413.368 302.676C414.144 302.676 414.76 302.946 415.216 303.486C415.676 304.026 415.906 304.822 415.906 305.874C415.906 306.85 415.686 307.636 415.246 308.232C414.81 308.824 414.156 309.12 413.284 309.12ZM413.086 308.268C413.586 308.268 413.994 308.074 414.31 307.686C414.63 307.294 414.79 306.672 414.79 305.82C414.79 305.096 414.642 304.536 414.346 304.14C414.054 303.74 413.626 303.54 413.062 303.54C412.446 303.54 412.006 303.74 411.742 304.14C411.478 304.536 411.342 305.096 411.334 305.82C411.334 306.688 411.468 307.314 411.736 307.698C412.008 308.078 412.458 308.268 413.086 308.268ZM418.147 306.156C418.147 306.548 418.211 306.904 418.339 307.224C418.471 307.54 418.669 307.792 418.933 307.98C419.201 308.168 419.535 308.262 419.935 308.262C420.331 308.262 420.671 308.17 420.955 307.986C421.243 307.802 421.427 307.536 421.507 307.188H422.557C422.481 307.608 422.313 307.962 422.053 308.25C421.793 308.538 421.479 308.756 421.111 308.904C420.743 309.048 420.359 309.12 419.959 309.12C419.379 309.12 418.869 308.994 418.429 308.742C417.989 308.49 417.645 308.128 417.397 307.656C417.149 307.184 417.025 306.618 417.025 305.958C417.025 305.306 417.137 304.734 417.361 304.242C417.585 303.75 417.909 303.366 418.333 303.09C418.761 302.814 419.275 302.676 419.875 302.676C420.751 302.676 421.423 302.954 421.891 303.51C422.359 304.062 422.593 304.808 422.593 305.748V306.156H418.147ZM418.153 305.406H421.525C421.525 304.874 421.389 304.426 421.117 304.062C420.845 303.698 420.429 303.516 419.869 303.516C419.481 303.516 419.159 303.61 418.903 303.798C418.647 303.982 418.457 304.22 418.333 304.512C418.209 304.8 418.149 305.098 418.153 305.406ZM424.117 309V302.796H425.173V303.99C425.329 303.546 425.575 303.216 425.911 303C426.251 302.784 426.617 302.676 427.009 302.676C427.101 302.676 427.189 302.682 427.273 302.694C427.361 302.706 427.431 302.726 427.483 302.754V303.828C427.423 303.8 427.345 303.782 427.249 303.774C427.157 303.762 427.079 303.756 427.015 303.756C426.523 303.724 426.101 303.818 425.749 304.038C425.397 304.258 425.221 304.626 425.221 305.142V309H424.117ZM432.849 309V302.094H431.175V301.368C431.691 301.368 432.093 301.33 432.381 301.254C432.673 301.178 432.879 301.062 432.999 300.906C433.123 300.75 433.191 300.556 433.203 300.324H433.995V309H432.849ZM439.181 300.204C440.117 300.204 440.865 300.582 441.425 301.338C441.985 302.09 442.265 303.204 442.265 304.68C442.265 306.152 441.987 307.262 441.431 308.01C440.875 308.758 440.121 309.132 439.169 309.132C438.221 309.132 437.469 308.76 436.913 308.016C436.357 307.268 436.079 306.162 436.079 304.698C436.079 303.214 436.359 302.094 436.919 301.338C437.483 300.582 438.237 300.204 439.181 300.204ZM439.181 308.172C439.801 308.172 440.269 307.9 440.585 307.356C440.905 306.812 441.065 305.922 441.065 304.686C441.065 303.43 440.903 302.526 440.579 301.974C440.255 301.418 439.787 301.14 439.175 301.14C438.563 301.14 438.091 301.42 437.759 301.98C437.431 302.536 437.267 303.438 437.267 304.686C437.267 305.914 437.431 306.802 437.759 307.35C438.087 307.898 438.561 308.172 439.181 308.172Z" fill="#B0B7BA"/>
<path d="M723.81 300.324H724.92V309H723.93L719.274 302.16V309H718.164V300.324H719.226L723.81 307.068V300.324ZM729.367 309.12C728.507 309.12 727.817 308.846 727.297 308.298C726.777 307.75 726.517 306.958 726.517 305.922C726.517 305.274 726.627 304.706 726.847 304.218C727.067 303.73 727.389 303.352 727.813 303.084C728.237 302.812 728.755 302.676 729.367 302.676C730.223 302.676 730.907 302.956 731.419 303.516C731.931 304.076 732.187 304.878 732.187 305.922C732.187 306.554 732.079 307.11 731.863 307.59C731.651 308.07 731.335 308.446 730.915 308.718C730.499 308.986 729.983 309.12 729.367 309.12ZM729.367 308.244C729.923 308.244 730.349 308.036 730.645 307.62C730.941 307.2 731.089 306.626 731.089 305.898C731.089 305.454 731.029 305.056 730.909 304.704C730.793 304.348 730.609 304.066 730.357 303.858C730.105 303.65 729.775 303.546 729.367 303.546C728.803 303.546 728.371 303.754 728.071 304.17C727.771 304.582 727.621 305.158 727.621 305.898C727.621 306.334 727.681 306.73 727.801 307.086C727.921 307.442 728.109 307.724 728.365 307.932C728.621 308.14 728.955 308.244 729.367 308.244ZM738.312 302.796L736.074 309H735.066L732.822 302.796H733.866L735.516 307.608H735.618L737.274 302.796H738.312ZM740.068 306.156C740.068 306.548 740.132 306.904 740.26 307.224C740.392 307.54 740.59 307.792 740.854 307.98C741.122 308.168 741.456 308.262 741.856 308.262C742.252 308.262 742.592 308.17 742.876 307.986C743.164 307.802 743.348 307.536 743.428 307.188H744.478C744.402 307.608 744.234 307.962 743.974 308.25C743.714 308.538 743.4 308.756 743.032 308.904C742.664 309.048 742.28 309.12 741.88 309.12C741.3 309.12 740.79 308.994 740.35 308.742C739.91 308.49 739.566 308.128 739.318 307.656C739.07 307.184 738.946 306.618 738.946 305.958C738.946 305.306 739.058 304.734 739.282 304.242C739.506 303.75 739.83 303.366 740.254 303.09C740.682 302.814 741.196 302.676 741.796 302.676C742.672 302.676 743.344 302.954 743.812 303.51C744.28 304.062 744.514 304.808 744.514 305.748V306.156H740.068ZM740.074 305.406H743.446C743.446 304.874 743.31 304.426 743.038 304.062C742.766 303.698 742.35 303.516 741.79 303.516C741.402 303.516 741.08 303.61 740.824 303.798C740.568 303.982 740.378 304.22 740.254 304.512C740.13 304.8 740.07 305.098 740.074 305.406ZM746.038 309V302.796H747.106V303.696C747.278 303.42 747.512 303.182 747.808 302.982C748.108 302.778 748.5 302.676 748.984 302.676C749.324 302.676 749.666 302.762 750.01 302.934C750.354 303.106 750.608 303.358 750.772 303.69C750.964 303.386 751.224 303.142 751.552 302.958C751.88 302.77 752.25 302.676 752.662 302.676C752.878 302.676 753.104 302.71 753.34 302.778C753.576 302.842 753.796 302.958 754 303.126C754.204 303.29 754.368 303.52 754.492 303.816C754.62 304.108 754.684 304.484 754.684 304.944V309H753.568V305.052C753.568 304.676 753.508 304.384 753.388 304.176C753.268 303.968 753.11 303.824 752.914 303.744C752.722 303.66 752.516 303.618 752.296 303.618C752.104 303.618 751.9 303.656 751.684 303.732C751.468 303.808 751.284 303.936 751.132 304.116C750.98 304.296 750.904 304.542 750.904 304.854V309H749.8V304.728C749.8 304.484 749.734 304.28 749.602 304.116C749.474 303.948 749.312 303.824 749.116 303.744C748.924 303.66 748.732 303.618 748.54 303.618C748.328 303.618 748.114 303.662 747.898 303.75C747.686 303.834 747.506 303.966 747.358 304.146C747.214 304.326 747.142 304.562 747.142 304.854V309H746.038ZM759.487 309.12C759.003 309.12 758.617 309.038 758.329 308.874C758.041 308.71 757.825 308.518 757.681 308.298C757.537 308.078 757.439 307.888 757.387 307.728L757.267 309H756.421V300.084H757.537V303.78C757.605 303.644 757.723 303.49 757.891 303.318C758.059 303.146 758.281 302.996 758.557 302.868C758.837 302.74 759.175 302.676 759.571 302.676C760.347 302.676 760.963 302.946 761.419 303.486C761.879 304.026 762.109 304.822 762.109 305.874C762.109 306.85 761.889 307.636 761.449 308.232C761.013 308.824 760.359 309.12 759.487 309.12ZM759.289 308.268C759.789 308.268 760.197 308.074 760.513 307.686C760.833 307.294 760.993 306.672 760.993 305.82C760.993 305.096 760.845 304.536 760.549 304.14C760.257 303.74 759.829 303.54 759.265 303.54C758.649 303.54 758.209 303.74 757.945 304.14C757.681 304.536 757.545 305.096 757.537 305.82C757.537 306.688 757.671 307.314 757.939 307.698C758.211 308.078 758.661 308.268 759.289 308.268ZM764.349 306.156C764.349 306.548 764.413 306.904 764.541 307.224C764.673 307.54 764.871 307.792 765.135 307.98C765.403 308.168 765.737 308.262 766.137 308.262C766.533 308.262 766.873 308.17 767.157 307.986C767.445 307.802 767.629 307.536 767.709 307.188H768.759C768.683 307.608 768.515 307.962 768.255 308.25C767.995 308.538 767.681 308.756 767.313 308.904C766.945 309.048 766.561 309.12 766.161 309.12C765.581 309.12 765.071 308.994 764.631 308.742C764.191 308.49 763.847 308.128 763.599 307.656C763.351 307.184 763.227 306.618 763.227 305.958C763.227 305.306 763.339 304.734 763.563 304.242C763.787 303.75 764.111 303.366 764.535 303.09C764.963 302.814 765.477 302.676 766.077 302.676C766.953 302.676 767.625 302.954 768.093 303.51C768.561 304.062 768.795 304.808 768.795 305.748V306.156H764.349ZM764.355 305.406H767.727C767.727 304.874 767.591 304.426 767.319 304.062C767.047 303.698 766.631 303.516 766.071 303.516C765.683 303.516 765.361 303.61 765.105 303.798C764.849 303.982 764.659 304.22 764.535 304.512C764.411 304.8 764.351 305.098 764.355 305.406ZM770.319 309V302.796H771.375V303.99C771.531 303.546 771.777 303.216 772.113 303C772.453 302.784 772.819 302.676 773.211 302.676C773.303 302.676 773.391 302.682 773.475 302.694C773.563 302.706 773.633 302.726 773.685 302.754V303.828C773.625 303.8 773.547 303.782 773.451 303.774C773.359 303.762 773.281 303.756 773.217 303.756C772.725 303.724 772.303 303.818 771.951 304.038C771.599 304.258 771.423 304.626 771.423 305.142V309H770.319ZM777.563 309V307.968C777.563 307.524 777.645 307.14 777.809 306.816C777.977 306.492 778.197 306.21 778.469 305.97C778.745 305.726 779.045 305.508 779.369 305.316C779.697 305.124 780.023 304.94 780.347 304.764C780.675 304.584 780.975 304.398 781.247 304.206C781.523 304.01 781.743 303.79 781.907 303.546C782.071 303.298 782.153 303.006 782.153 302.67C782.153 302.23 781.997 301.872 781.685 301.596C781.377 301.32 780.959 301.182 780.431 301.182C779.863 301.182 779.407 301.342 779.063 301.662C778.719 301.982 778.525 302.408 778.481 302.94H777.377C777.385 302.44 777.507 301.984 777.743 301.572C777.979 301.156 778.325 300.824 778.781 300.576C779.237 300.328 779.801 300.204 780.473 300.204C781.053 300.204 781.557 300.308 781.985 300.516C782.413 300.72 782.743 301.008 782.975 301.38C783.211 301.748 783.329 302.178 783.329 302.67C783.329 303.118 783.247 303.502 783.083 303.822C782.919 304.142 782.701 304.42 782.429 304.656C782.161 304.892 781.865 305.102 781.541 305.286C781.221 305.466 780.899 305.64 780.575 305.808C780.255 305.976 779.961 306.154 779.693 306.342C779.425 306.53 779.209 306.744 779.045 306.984C778.881 307.224 778.799 307.51 778.799 307.842V308.016H783.377V309H777.563ZM787.646 300.204C788.582 300.204 789.33 300.582 789.89 301.338C790.45 302.09 790.73 303.204 790.73 304.68C790.73 306.152 790.452 307.262 789.896 308.01C789.34 308.758 788.586 309.132 787.634 309.132C786.686 309.132 785.934 308.76 785.378 308.016C784.822 307.268 784.544 306.162 784.544 304.698C784.544 303.214 784.824 302.094 785.384 301.338C785.948 300.582 786.702 300.204 787.646 300.204ZM787.646 308.172C788.266 308.172 788.734 307.9 789.05 307.356C789.37 306.812 789.53 305.922 789.53 304.686C789.53 303.43 789.368 302.526 789.044 301.974C788.72 301.418 788.252 301.14 787.64 301.14C787.028 301.14 786.556 301.42 786.224 301.98C785.896 302.536 785.732 303.438 785.732 304.686C785.732 305.914 785.896 306.802 786.224 307.35C786.552 307.898 787.026 308.172 787.646 308.172Z" fill="#B0B7BA"/>
<path d="M1072.17 300.324H1073.28V309H1072.29L1067.63 302.16V309H1066.52V300.324H1067.58L1072.17 307.068V300.324ZM1077.72 309.12C1076.86 309.12 1076.17 308.846 1075.65 308.298C1075.13 307.75 1074.87 306.958 1074.87 305.922C1074.87 305.274 1074.98 304.706 1075.2 304.218C1075.42 303.73 1075.75 303.352 1076.17 303.084C1076.59 302.812 1077.11 302.676 1077.72 302.676C1078.58 302.676 1079.26 302.956 1079.78 303.516C1080.29 304.076 1080.54 304.878 1080.54 305.922C1080.54 306.554 1080.44 307.11 1080.22 307.59C1080.01 308.07 1079.69 308.446 1079.27 308.718C1078.86 308.986 1078.34 309.12 1077.72 309.12ZM1077.72 308.244C1078.28 308.244 1078.71 308.036 1079 307.62C1079.3 307.2 1079.45 306.626 1079.45 305.898C1079.45 305.454 1079.39 305.056 1079.27 304.704C1079.15 304.348 1078.97 304.066 1078.71 303.858C1078.46 303.65 1078.13 303.546 1077.72 303.546C1077.16 303.546 1076.73 303.754 1076.43 304.17C1076.13 304.582 1075.98 305.158 1075.98 305.898C1075.98 306.334 1076.04 306.73 1076.16 307.086C1076.28 307.442 1076.47 307.724 1076.72 307.932C1076.98 308.14 1077.31 308.244 1077.72 308.244ZM1086.67 302.796L1084.43 309H1083.42L1081.18 302.796H1082.22L1083.87 307.608H1083.97L1085.63 302.796H1086.67ZM1088.42 306.156C1088.42 306.548 1088.49 306.904 1088.62 307.224C1088.75 307.54 1088.95 307.792 1089.21 307.98C1089.48 308.168 1089.81 308.262 1090.21 308.262C1090.61 308.262 1090.95 308.17 1091.23 307.986C1091.52 307.802 1091.7 307.536 1091.78 307.188H1092.83C1092.76 307.608 1092.59 307.962 1092.33 308.25C1092.07 308.538 1091.76 308.756 1091.39 308.904C1091.02 309.048 1090.64 309.12 1090.24 309.12C1089.66 309.12 1089.15 308.994 1088.71 308.742C1088.27 308.49 1087.92 308.128 1087.67 307.656C1087.43 307.184 1087.3 306.618 1087.3 305.958C1087.3 305.306 1087.41 304.734 1087.64 304.242C1087.86 303.75 1088.19 303.366 1088.61 303.09C1089.04 302.814 1089.55 302.676 1090.15 302.676C1091.03 302.676 1091.7 302.954 1092.17 303.51C1092.64 304.062 1092.87 304.808 1092.87 305.748V306.156H1088.42ZM1088.43 305.406H1091.8C1091.8 304.874 1091.67 304.426 1091.39 304.062C1091.12 303.698 1090.71 303.516 1090.15 303.516C1089.76 303.516 1089.44 303.61 1089.18 303.798C1088.92 303.982 1088.73 304.22 1088.61 304.512C1088.49 304.8 1088.43 305.098 1088.43 305.406ZM1094.39 309V302.796H1095.46V303.696C1095.63 303.42 1095.87 303.182 1096.16 302.982C1096.46 302.778 1096.86 302.676 1097.34 302.676C1097.68 302.676 1098.02 302.762 1098.37 302.934C1098.71 303.106 1098.96 303.358 1099.13 303.69C1099.32 303.386 1099.58 303.142 1099.91 302.958C1100.24 302.77 1100.61 302.676 1101.02 302.676C1101.23 302.676 1101.46 302.71 1101.7 302.778C1101.93 302.842 1102.15 302.958 1102.36 303.126C1102.56 303.29 1102.72 303.52 1102.85 303.816C1102.98 304.108 1103.04 304.484 1103.04 304.944V309H1101.92V305.052C1101.92 304.676 1101.86 304.384 1101.74 304.176C1101.62 303.968 1101.47 303.824 1101.27 303.744C1101.08 303.66 1100.87 303.618 1100.65 303.618C1100.46 303.618 1100.26 303.656 1100.04 303.732C1099.82 303.808 1099.64 303.936 1099.49 304.116C1099.34 304.296 1099.26 304.542 1099.26 304.854V309H1098.16V304.728C1098.16 304.484 1098.09 304.28 1097.96 304.116C1097.83 303.948 1097.67 303.824 1097.47 303.744C1097.28 303.66 1097.09 303.618 1096.9 303.618C1096.68 303.618 1096.47 303.662 1096.25 303.75C1096.04 303.834 1095.86 303.966 1095.71 304.146C1095.57 304.326 1095.5 304.562 1095.5 304.854V309H1094.39ZM1107.84 309.12C1107.36 309.12 1106.97 309.038 1106.69 308.874C1106.4 308.71 1106.18 308.518 1106.04 308.298C1105.89 308.078 1105.8 307.888 1105.74 307.728L1105.62 309H1104.78V300.084H1105.89V303.78C1105.96 303.644 1106.08 303.49 1106.25 303.318C1106.42 303.146 1106.64 302.996 1106.91 302.868C1107.19 302.74 1107.53 302.676 1107.93 302.676C1108.7 302.676 1109.32 302.946 1109.78 303.486C1110.24 304.026 1110.47 304.822 1110.47 305.874C1110.47 306.85 1110.25 307.636 1109.81 308.232C1109.37 308.824 1108.72 309.12 1107.84 309.12ZM1107.65 308.268C1108.15 308.268 1108.55 308.074 1108.87 307.686C1109.19 307.294 1109.35 306.672 1109.35 305.82C1109.35 305.096 1109.2 304.536 1108.91 304.14C1108.61 303.74 1108.19 303.54 1107.62 303.54C1107.01 303.54 1106.57 303.74 1106.3 304.14C1106.04 304.536 1105.9 305.096 1105.89 305.82C1105.89 306.688 1106.03 307.314 1106.3 307.698C1106.57 308.078 1107.02 308.268 1107.65 308.268ZM1112.71 306.156C1112.71 306.548 1112.77 306.904 1112.9 307.224C1113.03 307.54 1113.23 307.792 1113.49 307.98C1113.76 308.168 1114.09 308.262 1114.49 308.262C1114.89 308.262 1115.23 308.17 1115.51 307.986C1115.8 307.802 1115.99 307.536 1116.07 307.188H1117.12C1117.04 307.608 1116.87 307.962 1116.61 308.25C1116.35 308.538 1116.04 308.756 1115.67 308.904C1115.3 309.048 1114.92 309.12 1114.52 309.12C1113.94 309.12 1113.43 308.994 1112.99 308.742C1112.55 308.49 1112.2 308.128 1111.96 307.656C1111.71 307.184 1111.58 306.618 1111.58 305.958C1111.58 305.306 1111.7 304.734 1111.92 304.242C1112.14 303.75 1112.47 303.366 1112.89 303.09C1113.32 302.814 1113.83 302.676 1114.43 302.676C1115.31 302.676 1115.98 302.954 1116.45 303.51C1116.92 304.062 1117.15 304.808 1117.15 305.748V306.156H1112.71ZM1112.71 305.406H1116.08C1116.08 304.874 1115.95 304.426 1115.68 304.062C1115.4 303.698 1114.99 303.516 1114.43 303.516C1114.04 303.516 1113.72 303.61 1113.46 303.798C1113.21 303.982 1113.02 304.22 1112.89 304.512C1112.77 304.8 1112.71 305.098 1112.71 305.406ZM1118.68 309V302.796H1119.73V303.99C1119.89 303.546 1120.13 303.216 1120.47 303C1120.81 302.784 1121.18 302.676 1121.57 302.676C1121.66 302.676 1121.75 302.682 1121.83 302.694C1121.92 302.706 1121.99 302.726 1122.04 302.754V303.828C1121.98 303.8 1121.9 303.782 1121.81 303.774C1121.72 303.762 1121.64 303.756 1121.57 303.756C1121.08 303.724 1120.66 303.818 1120.31 304.038C1119.96 304.258 1119.78 304.626 1119.78 305.142V309H1118.68ZM1125.87 302.85C1125.87 302.29 1126 301.814 1126.27 301.422C1126.55 301.026 1126.91 300.724 1127.36 300.516C1127.82 300.308 1128.32 300.204 1128.87 300.204C1129.47 300.204 1130 300.292 1130.46 300.468C1130.92 300.64 1131.28 300.892 1131.54 301.224C1131.8 301.556 1131.93 301.962 1131.93 302.442C1131.93 302.874 1131.79 303.264 1131.52 303.612C1131.25 303.956 1130.83 304.224 1130.27 304.416C1130.84 304.572 1131.3 304.836 1131.64 305.208C1131.99 305.576 1132.16 306.042 1132.16 306.606C1132.16 307.134 1132.01 307.588 1131.72 307.968C1131.43 308.348 1131.04 308.638 1130.53 308.838C1130.03 309.038 1129.46 309.136 1128.82 309.132C1128.22 309.128 1127.7 309.018 1127.24 308.802C1126.79 308.586 1126.43 308.284 1126.17 307.896C1125.91 307.504 1125.77 307.04 1125.75 306.504H1126.86C1126.95 307.044 1127.17 307.458 1127.52 307.746C1127.88 308.034 1128.32 308.178 1128.86 308.178C1129.5 308.178 1130.01 308.032 1130.39 307.74C1130.77 307.448 1130.96 307.066 1130.96 306.594C1130.96 306.246 1130.86 305.952 1130.67 305.712C1130.47 305.472 1130.21 305.29 1129.88 305.166C1129.55 305.038 1129.18 304.972 1128.78 304.968L1128 304.95V304.008L1128.74 303.99C1129.12 303.982 1129.46 303.91 1129.76 303.774C1130.06 303.634 1130.3 303.452 1130.47 303.228C1130.64 303 1130.73 302.75 1130.73 302.478C1130.73 302.118 1130.57 301.804 1130.24 301.536C1129.92 301.264 1129.46 301.128 1128.86 301.128C1128.55 301.128 1128.25 301.188 1127.97 301.308C1127.68 301.428 1127.45 301.616 1127.26 301.872C1127.08 302.124 1126.98 302.45 1126.97 302.85H1125.87ZM1136.33 300.204C1137.27 300.204 1138.01 300.582 1138.57 301.338C1139.13 302.09 1139.41 303.204 1139.41 304.68C1139.41 306.152 1139.14 307.262 1138.58 308.01C1138.02 308.758 1137.27 309.132 1136.32 309.132C1135.37 309.132 1134.62 308.76 1134.06 308.016C1133.51 307.268 1133.23 306.162 1133.23 304.698C1133.23 303.214 1133.51 302.094 1134.07 301.338C1134.63 300.582 1135.39 300.204 1136.33 300.204ZM1136.33 308.172C1136.95 308.172 1137.42 307.9 1137.73 307.356C1138.05 306.812 1138.21 305.922 1138.21 304.686C1138.21 303.43 1138.05 302.526 1137.73 301.974C1137.4 301.418 1136.94 301.14 1136.32 301.14C1135.71 301.14 1135.24 301.42 1134.91 301.98C1134.58 302.536 1134.42 303.438 1134.42 304.686C1134.42 305.914 1134.58 306.802 1134.91 307.35C1135.24 307.898 1135.71 308.172 1136.33 308.172Z" fill="#B0B7BA"/>
<path d="M25.404 2.324H30.582L30.552 3.284H26.352L26.13 6.086C26.418 5.818 26.732 5.628 27.072 5.516C27.416 5.4 27.788 5.342 28.188 5.342C28.708 5.342 29.19 5.45 29.634 5.666C30.078 5.878 30.434 6.194 30.702 6.614C30.97 7.03 31.104 7.546 31.104 8.162C31.104 8.762 30.974 9.286 30.714 9.734C30.454 10.178 30.088 10.522 29.616 10.766C29.144 11.01 28.59 11.132 27.954 11.132C27.418 11.132 26.922 11.038 26.466 10.85C26.01 10.662 25.618 10.4 25.29 10.064C24.966 9.728 24.728 9.342 24.576 8.906L25.536 8.504C25.748 8.996 26.048 9.402 26.436 9.722C26.824 10.038 27.304 10.196 27.876 10.196C28.492 10.196 28.986 10.018 29.358 9.662C29.734 9.302 29.922 8.814 29.922 8.198C29.922 7.814 29.834 7.478 29.658 7.19C29.482 6.902 29.244 6.68 28.944 6.524C28.648 6.364 28.32 6.284 27.96 6.284C27.608 6.284 27.286 6.336 26.994 6.44C26.702 6.54 26.392 6.772 26.064 7.136C26.028 7.152 25.99 7.15 25.95 7.13L25.014 6.836L25.404 2.324ZM35.3655 2.204C36.3015 2.204 37.0495 2.582 37.6095 3.338C38.1695 4.09 38.4495 5.204 38.4495 6.68C38.4495 8.152 38.1715 9.262 37.6155 10.01C37.0595 10.758 36.3055 11.132 35.3535 11.132C34.4055 11.132 33.6535 10.76 33.0975 10.016C32.5415 9.268 32.2635 8.162 32.2635 6.698C32.2635 5.214 32.5435 4.094 33.1035 3.338C33.6675 2.582 34.4215 2.204 35.3655 2.204ZM35.3655 10.172C35.9855 10.172 36.4535 9.9 36.7695 9.356C37.0895 8.812 37.2495 7.922 37.2495 6.686C37.2495 5.43 37.0875 4.526 36.7635 3.974C36.4395 3.418 35.9715 3.14 35.3595 3.14C34.7475 3.14 34.2755 3.42 33.9435 3.98C33.6155 4.536 33.4515 5.438 33.4515 6.686C33.4515 7.914 33.6155 8.802 33.9435 9.35C34.2715 9.898 34.7455 10.172 35.3655 10.172ZM46.7992 11H45.5452L42.8392 6.542L41.3332 8.264V11H40.1812V2.324H41.3332V6.812L45.2212 2.324H46.5472L43.6492 5.732L46.7992 11Z" fill="#B0B7BA"/>
<path d="M26.232 63V56.094H24.558V55.368C25.074 55.368 25.476 55.33 25.764 55.254C26.056 55.178 26.262 55.062 26.382 54.906C26.506 54.75 26.574 54.556 26.586 54.324H27.378V63H26.232ZM32.5647 54.204C33.5007 54.204 34.2487 54.582 34.8087 55.338C35.3687 56.09 35.6487 57.204 35.6487 58.68C35.6487 60.152 35.3707 61.262 34.8147 62.01C34.2587 62.758 33.5047 63.132 32.5527 63.132C31.6047 63.132 30.8527 62.76 30.2967 62.016C29.7407 61.268 29.4627 60.162 29.4627 58.698C29.4627 57.214 29.7427 56.094 30.3027 55.338C30.8667 54.582 31.6207 54.204 32.5647 54.204ZM32.5647 62.172C33.1847 62.172 33.6527 61.9 33.9687 61.356C34.2887 60.812 34.4487 59.922 34.4487 58.686C34.4487 57.43 34.2867 56.526 33.9627 55.974C33.6387 55.418 33.1707 55.14 32.5587 55.14C31.9467 55.14 31.4747 55.42 31.1427 55.98C30.8147 56.536 30.6507 57.438 30.6507 58.686C30.6507 59.914 30.8147 60.802 31.1427 61.35C31.4707 61.898 31.9447 62.172 32.5647 62.172ZM43.9984 63H42.7444L40.0384 58.542L38.5324 60.264V63H37.3804V54.324H38.5324V58.812L42.4204 54.324H43.7464L40.8484 57.732L43.9984 63Z" fill="#B0B7BA"/>
<path d="M26.232 115V108.094H24.558V107.368C25.074 107.368 25.476 107.33 25.764 107.254C26.056 107.178 26.262 107.062 26.382 106.906C26.506 106.75 26.574 106.556 26.586 106.324H27.378V115H26.232ZM36.6507 115H35.3967L32.6907 110.542L31.1847 112.264V115H30.0327V106.324H31.1847V110.812L35.0727 106.324H36.3987L33.5007 109.732L36.6507 115Z" fill="#B0B7BA"/>
<path d="M25.404 158.324H30.582L30.552 159.284H26.352L26.13 162.086C26.418 161.818 26.732 161.628 27.072 161.516C27.416 161.4 27.788 161.342 28.188 161.342C28.708 161.342 29.19 161.45 29.634 161.666C30.078 161.878 30.434 162.194 30.702 162.614C30.97 163.03 31.104 163.546 31.104 164.162C31.104 164.762 30.974 165.286 30.714 165.734C30.454 166.178 30.088 166.522 29.616 166.766C29.144 167.01 28.59 167.132 27.954 167.132C27.418 167.132 26.922 167.038 26.466 166.85C26.01 166.662 25.618 166.4 25.29 166.064C24.966 165.728 24.728 165.342 24.576 164.906L25.536 164.504C25.748 164.996 26.048 165.402 26.436 165.722C26.824 166.038 27.304 166.196 27.876 166.196C28.492 166.196 28.986 166.018 29.358 165.662C29.734 165.302 29.922 164.814 29.922 164.198C29.922 163.814 29.834 163.478 29.658 163.19C29.482 162.902 29.244 162.68 28.944 162.524C28.648 162.364 28.32 162.284 27.96 162.284C27.608 162.284 27.286 162.336 26.994 162.44C26.702 162.54 26.392 162.772 26.064 163.136C26.028 163.152 25.99 163.15 25.95 163.13L25.014 162.836L25.404 158.324ZM35.3655 158.204C36.3015 158.204 37.0495 158.582 37.6095 159.338C38.1695 160.09 38.4495 161.204 38.4495 162.68C38.4495 164.152 38.1715 165.262 37.6155 166.01C37.0595 166.758 36.3055 167.132 35.3535 167.132C34.4055 167.132 33.6535 166.76 33.0975 166.016C32.5415 165.268 32.2635 164.162 32.2635 162.698C32.2635 161.214 32.5435 160.094 33.1035 159.338C33.6675 158.582 34.4215 158.204 35.3655 158.204ZM35.3655 166.172C35.9855 166.172 36.4535 165.9 36.7695 165.356C37.0895 164.812 37.2495 163.922 37.2495 162.686C37.2495 161.43 37.0875 160.526 36.7635 159.974C36.4395 159.418 35.9715 159.14 35.3595 159.14C34.7475 159.14 34.2755 159.42 33.9435 159.98C33.6155 160.536 33.4515 161.438 33.4515 162.686C33.4515 163.914 33.6155 164.802 33.9435 165.35C34.2715 165.898 34.7455 166.172 35.3655 166.172ZM42.6311 158.204C43.5671 158.204 44.3151 158.582 44.8751 159.338C45.4351 160.09 45.7151 161.204 45.7151 162.68C45.7151 164.152 45.4371 165.262 44.8811 166.01C44.3251 166.758 43.5711 167.132 42.6191 167.132C41.6711 167.132 40.9191 166.76 40.3631 166.016C39.8071 165.268 39.5291 164.162 39.5291 162.698C39.5291 161.214 39.8091 160.094 40.3691 159.338C40.9331 158.582 41.6871 158.204 42.6311 158.204ZM42.6311 166.172C43.2511 166.172 43.7191 165.9 44.0351 165.356C44.3551 164.812 44.5151 163.922 44.5151 162.686C44.5151 161.43 44.3531 160.526 44.0291 159.974C43.7051 159.418 43.2371 159.14 42.6251 159.14C42.0131 159.14 41.5411 159.42 41.2091 159.98C40.8811 160.536 40.7171 161.438 40.7171 162.686C40.7171 163.914 40.8811 164.802 41.2091 165.35C41.5371 165.898 42.0111 166.172 42.6311 166.172Z" fill="#B0B7BA"/>
<path d="M26.232 219V212.094H24.558V211.368C25.074 211.368 25.476 211.33 25.764 211.254C26.056 211.178 26.262 211.062 26.382 210.906C26.506 210.75 26.574 210.556 26.586 210.324H27.378V219H26.232ZM32.5647 210.204C33.5007 210.204 34.2487 210.582 34.8087 211.338C35.3687 212.09 35.6487 213.204 35.6487 214.68C35.6487 216.152 35.3707 217.262 34.8147 218.01C34.2587 218.758 33.5047 219.132 32.5527 219.132C31.6047 219.132 30.8527 218.76 30.2967 218.016C29.7407 217.268 29.4627 216.162 29.4627 214.698C29.4627 213.214 29.7427 212.094 30.3027 211.338C30.8667 210.582 31.6207 210.204 32.5647 210.204ZM32.5647 218.172C33.1847 218.172 33.6527 217.9 33.9687 217.356C34.2887 216.812 34.4487 215.922 34.4487 214.686C34.4487 213.43 34.2867 212.526 33.9627 211.974C33.6387 211.418 33.1707 211.14 32.5587 211.14C31.9467 211.14 31.4747 211.42 31.1427 211.98C30.8147 212.536 30.6507 213.438 30.6507 214.686C30.6507 215.914 30.8147 216.802 31.1427 217.35C31.4707 217.898 31.9447 218.172 32.5647 218.172ZM39.8303 210.204C40.7663 210.204 41.5143 210.582 42.0743 211.338C42.6343 212.09 42.9143 213.204 42.9143 214.68C42.9143 216.152 42.6363 217.262 42.0803 218.01C41.5243 218.758 40.7703 219.132 39.8183 219.132C38.8703 219.132 38.1183 218.76 37.5623 218.016C37.0063 217.268 36.7283 216.162 36.7283 214.698C36.7283 213.214 37.0083 212.094 37.5683 211.338C38.1323 210.582 38.8863 210.204 39.8303 210.204ZM39.8303 218.172C40.4503 218.172 40.9183 217.9 41.2343 217.356C41.5543 216.812 41.7143 215.922 41.7143 214.686C41.7143 213.43 41.5523 212.526 41.2283 211.974C40.9043 211.418 40.4363 211.14 39.8243 211.14C39.2123 211.14 38.7403 211.42 38.4083 211.98C38.0803 212.536 37.9163 213.438 37.9163 214.686C37.9163 215.914 38.0803 216.802 38.4083 217.35C38.7363 217.898 39.2103 218.172 39.8303 218.172Z" fill="#B0B7BA"/>
<path d="M27.678 262.204C28.614 262.204 29.362 262.582 29.922 263.338C30.482 264.09 30.762 265.204 30.762 266.68C30.762 268.152 30.484 269.262 29.928 270.01C29.372 270.758 28.618 271.132 27.666 271.132C26.718 271.132 25.966 270.76 25.41 270.016C24.854 269.268 24.576 268.162 24.576 266.698C24.576 265.214 24.856 264.094 25.416 263.338C25.98 262.582 26.734 262.204 27.678 262.204ZM27.678 270.172C28.298 270.172 28.766 269.9 29.082 269.356C29.402 268.812 29.562 267.922 29.562 266.686C29.562 265.43 29.4 264.526 29.076 263.974C28.752 263.418 28.284 263.14 27.672 263.14C27.06 263.14 26.588 263.42 26.256 263.98C25.928 264.536 25.764 265.438 25.764 266.686C25.764 267.914 25.928 268.802 26.256 269.35C26.584 269.898 27.058 270.172 27.678 270.172ZM34.9436 262.204C35.8796 262.204 36.6276 262.582 37.1876 263.338C37.7476 264.09 38.0276 265.204 38.0276 266.68C38.0276 268.152 37.7496 269.262 37.1936 270.01C36.6376 270.758 35.8836 271.132 34.9316 271.132C33.9836 271.132 33.2316 270.76 32.6756 270.016C32.1196 269.268 31.8416 268.162 31.8416 266.698C31.8416 265.214 32.1216 264.094 32.6816 263.338C33.2456 262.582 33.9996 262.204 34.9436 262.204ZM34.9436 270.172C35.5636 270.172 36.0316 269.9 36.3476 269.356C36.6676 268.812 36.8276 267.922 36.8276 266.686C36.8276 265.43 36.6656 264.526 36.3416 263.974C36.0176 263.418 35.5496 263.14 34.9376 263.14C34.3256 263.14 33.8536 263.42 33.5216 263.98C33.1936 264.536 33.0296 265.438 33.0296 266.686C33.0296 267.914 33.1936 268.802 33.5216 269.35C33.8496 269.898 34.3236 270.172 34.9436 270.172Z" fill="#B0B7BA"/>
<line x1="60.5" y1="10.5001" x2="1139.5" y2="10.5" stroke="#E5E7E8" stroke-opacity="0.7" stroke-linecap="round" stroke-dasharray="16 8"/>
<line x1="60.5" y1="62.5002" x2="1139.5" y2="62.5001" stroke="#E5E7E8" stroke-opacity="0.7" stroke-linecap="round" stroke-dasharray="16 8"/>
<line x1="60.5" y1="114.5" x2="1139.5" y2="114.5" stroke="#E5E7E8" stroke-opacity="0.7" stroke-linecap="round" stroke-dasharray="16 8"/>
<line x1="60.5" y1="166.5" x2="1139.5" y2="166.5" stroke="#E5E7E8" stroke-opacity="0.7" stroke-linecap="round" stroke-dasharray="16 8"/>
<line x1="60.5" y1="218.5" x2="1139.5" y2="218.5" stroke="#E5E7E8" stroke-opacity="0.7" stroke-linecap="round" stroke-dasharray="16 8"/>
<line x1="60.5" y1="270.501" x2="1139.5" y2="270.501" stroke="#E5E7E8" stroke-opacity="0.7" stroke-linecap="round" stroke-dasharray="16 8"/>
</svg>
