<svg width="326" height="63" viewBox="0 0 326 63" fill="none" xmlns="http://www.w3.org/2000/svg">
<path d="M3.592 12.986L1 13.7726V63H325V33L322.408 32.1785C319.852 31.3744 314.668 29.7313 309.52 23.5611C304.372 17.3909 299.188 6.65847 294.04 2.84796C288.892 -0.962564 283.708 2.11382 278.632 3.28494C273.52 4.45606 268.48 3.68697 263.368 4.64834C258.292 5.60971 253.108 8.30154 247.96 14.297C242.812 20.2924 237.628 29.6265 232.48 29.0671C227.332 28.5078 222.148 18.09 217 15.5206C211.852 12.9511 206.668 18.2648 201.52 17.0063C196.372 15.7478 191.188 7.95195 186.04 8.00439C180.892 8.05683 175.708 15.9925 170.632 20.3624C165.52 24.7322 160.48 25.5363 155.368 22.0404C150.292 18.5445 145.108 10.7487 139.96 9.71738C134.812 8.70357 129.628 14.4718 124.48 15.3108C119.332 16.1673 114.148 12.0771 109 9.71738C103.852 7.35765 98.668 6.72839 93.52 7.16538C88.372 7.60237 83.188 9.10559 78.04 12.6015C72.892 16.0974 67.708 21.5859 62.632 22.9144C57.52 24.2603 52.48 21.4636 47.368 20.712C42.292 19.9429 37.108 21.2363 31.96 19.6282C26.812 18.0201 21.628 13.5454 16.48 12.0771C11.332 10.6263 6.148 12.1995 3.592 12.986Z" fill="url(#paint0_linear_2023_10737)"/>
<path d="M1 13.7726L3.592 12.986C6.148 12.1995 11.332 10.6263 16.48 12.0771C21.628 13.5454 26.812 18.0201 31.96 19.6282C37.108 21.2363 42.292 19.9429 47.368 20.712C52.48 21.4636 57.52 24.2603 62.632 22.9144C67.708 21.5859 72.892 16.0974 78.04 12.6015C83.188 9.10559 88.372 7.60237 93.52 7.16538C98.668 6.72839 103.852 7.35765 109 9.71738C114.148 12.0771 119.332 16.1673 124.48 15.3108C129.628 14.4718 134.812 8.70357 139.96 9.71738C145.108 10.7487 150.292 18.5445 155.368 22.0404C160.48 25.5363 165.52 24.7322 170.632 20.3624C175.708 15.9925 180.892 8.05683 186.04 8.00439C191.188 7.95195 196.372 15.7478 201.52 17.0063C206.668 18.2648 211.852 12.9511 217 15.5206C222.148 18.09 227.332 28.5078 232.48 29.0671C237.628 29.6265 242.812 20.2924 247.96 14.297C253.108 8.30154 258.292 5.60971 263.368 4.64834C268.48 3.68697 273.52 4.45606 278.632 3.28494C283.708 2.11382 288.892 -0.962564 294.04 2.84796C299.188 6.65847 304.372 17.3909 309.52 23.5611C314.668 29.7313 319.852 31.3744 322.408 32.1785L325 33" stroke="#0FAF62" stroke-width="2" stroke-linecap="round"/>
<defs>
<linearGradient id="paint0_linear_2023_10737" x1="163" y1="1" x2="163" y2="75" gradientUnits="userSpaceOnUse">
<stop stop-color="#E7F7EF"/>
<stop offset="1" stop-color="#E7F7EF" stop-opacity="0"/>
</linearGradient>
</defs>
</svg>
