<svg width="326" height="63" viewBox="0 0 326 63" fill="none" xmlns="http://www.w3.org/2000/svg">
<path d="M3.592 3.42117L1 1V63H325V33C322.143 27.4949 316.897 12.5594 309.52 14.0878C304.372 15.1714 299.188 27.2942 294.04 30.8836C288.892 34.473 283.708 29.4952 278.632 25.7704C273.52 22.0455 268.48 19.5735 263.368 20.6741C258.292 21.7746 253.108 26.4476 247.96 25.9228C242.812 25.381 237.628 19.6243 232.48 14.9344C227.332 10.2614 222.148 6.6381 217 4.55556C211.852 2.47302 206.668 1.89735 201.52 7.01058C196.372 12.1238 191.188 22.8921 186.04 26.0074C180.892 29.1058 175.708 24.5344 170.632 24.0603C165.52 23.5693 160.48 27.1926 155.368 26.8709C150.292 26.5661 145.108 22.3333 139.96 20.928C134.812 19.5058 129.628 20.928 124.48 24.0265C119.332 27.1249 114.148 31.9333 109 29.055C103.852 26.1767 98.668 15.6116 93.52 14.5788C88.372 13.5291 83.188 21.9947 78.04 25.6688C72.892 29.3259 67.708 28.2085 62.632 26.8709C57.52 25.5503 52.48 24.0265 47.368 23.891C42.292 23.7386 37.108 24.9915 31.96 23.8233C26.812 22.672 21.628 19.1164 16.48 14.9175C11.332 10.7016 6.148 5.85926 3.592 3.42117Z" fill="url(#paint0_linear_2023_10740)"/>
<path d="M1 1L3.592 3.42116C6.148 5.85926 11.332 10.7016 16.48 14.9175C21.628 19.1164 26.812 22.672 31.96 23.8233C37.108 24.9915 42.292 23.7386 47.368 23.891C52.48 24.0265 57.52 25.5503 62.632 26.8709C67.708 28.2085 72.892 29.3259 78.04 25.6688C83.188 21.9947 88.372 13.5291 93.52 14.5788C98.668 15.6116 103.852 26.1767 109 29.055C114.148 31.9333 119.332 27.1249 124.48 24.0265C129.628 20.928 134.812 19.5058 139.96 20.928C145.108 22.3333 150.292 26.5661 155.368 26.8709C160.48 27.1926 165.52 23.5693 170.632 24.0603C175.708 24.5344 180.892 29.1058 186.04 26.0074C191.188 22.8921 196.372 12.1238 201.52 7.01058C206.668 1.89735 211.852 2.47302 217 4.55556C222.148 6.6381 227.332 10.2614 232.48 14.9344C237.628 19.6243 242.812 25.381 247.96 25.9228C253.108 26.4476 258.292 21.7746 263.368 20.6741C268.48 19.5735 273.52 22.0455 278.632 25.7704C283.708 29.4952 288.892 34.473 294.04 30.8836C299.188 27.2942 304.372 15.1714 309.52 14.0878C316.897 12.5594 322.143 27.4949 325 33" stroke="#E84646" stroke-width="2" stroke-linecap="round"/>
<defs>
<linearGradient id="paint0_linear_2023_10740" x1="163" y1="63" x2="163" y2="1" gradientUnits="userSpaceOnUse">
<stop stop-color="#FDEDED" stop-opacity="0"/>
<stop offset="1" stop-color="#FDEDED"/>
</linearGradient>
</defs>
</svg>
