<svg width="1164" height="62" viewBox="0 0 1164 62" fill="none" xmlns="http://www.w3.org/2000/svg">
<path d="M30.792 26.324H31.902V35H30.912L26.256 28.16V35H25.146V26.324H26.208L30.792 33.068V26.324ZM36.3488 35.12C35.4888 35.12 34.7988 34.846 34.2788 34.298C33.7588 33.75 33.4988 32.958 33.4988 31.922C33.4988 31.274 33.6088 30.706 33.8288 30.218C34.0488 29.73 34.3708 29.352 34.7948 29.084C35.2188 28.812 35.7368 28.676 36.3488 28.676C37.2048 28.676 37.8888 28.956 38.4008 29.516C38.9128 30.076 39.1688 30.878 39.1688 31.922C39.1688 32.554 39.0608 33.11 38.8448 33.59C38.6328 34.07 38.3168 34.446 37.8968 34.718C37.4808 34.986 36.9648 35.12 36.3488 35.12ZM36.3488 34.244C36.9048 34.244 37.3308 34.036 37.6268 33.62C37.9228 33.2 38.0708 32.626 38.0708 31.898C38.0708 31.454 38.0108 31.056 37.8908 30.704C37.7748 30.348 37.5908 30.066 37.3388 29.858C37.0868 29.65 36.7568 29.546 36.3488 29.546C35.7848 29.546 35.3528 29.754 35.0528 30.17C34.7528 30.582 34.6028 31.158 34.6028 31.898C34.6028 32.334 34.6628 32.73 34.7828 33.086C34.9028 33.442 35.0908 33.724 35.3468 33.932C35.6028 34.14 35.9368 34.244 36.3488 34.244ZM45.2933 28.796L43.0553 35H42.0473L39.8033 28.796H40.8473L42.4973 33.608H42.5993L44.2553 28.796H45.2933ZM47.0498 32.156C47.0498 32.548 47.1138 32.904 47.2418 33.224C47.3738 33.54 47.5718 33.792 47.8358 33.98C48.1038 34.168 48.4378 34.262 48.8378 34.262C49.2338 34.262 49.5738 34.17 49.8578 33.986C50.1458 33.802 50.3298 33.536 50.4098 33.188H51.4598C51.3838 33.608 51.2158 33.962 50.9558 34.25C50.6958 34.538 50.3818 34.756 50.0138 34.904C49.6458 35.048 49.2618 35.12 48.8618 35.12C48.2818 35.12 47.7718 34.994 47.3318 34.742C46.8918 34.49 46.5478 34.128 46.2998 33.656C46.0518 33.184 45.9278 32.618 45.9278 31.958C45.9278 31.306 46.0398 30.734 46.2638 30.242C46.4878 29.75 46.8118 29.366 47.2358 29.09C47.6638 28.814 48.1778 28.676 48.7778 28.676C49.6538 28.676 50.3258 28.954 50.7938 29.51C51.2618 30.062 51.4958 30.808 51.4958 31.748V32.156H47.0498ZM47.0558 31.406H50.4278C50.4278 30.874 50.2918 30.426 50.0198 30.062C49.7478 29.698 49.3318 29.516 48.7718 29.516C48.3838 29.516 48.0618 29.61 47.8058 29.798C47.5498 29.982 47.3598 30.22 47.2358 30.512C47.1118 30.8 47.0518 31.098 47.0558 31.406ZM53.0196 35V28.796H54.0876V29.696C54.2596 29.42 54.4936 29.182 54.7896 28.982C55.0896 28.778 55.4816 28.676 55.9656 28.676C56.3056 28.676 56.6476 28.762 56.9916 28.934C57.3356 29.106 57.5896 29.358 57.7536 29.69C57.9456 29.386 58.2056 29.142 58.5336 28.958C58.8616 28.77 59.2316 28.676 59.6436 28.676C59.8596 28.676 60.0856 28.71 60.3216 28.778C60.5576 28.842 60.7776 28.958 60.9816 29.126C61.1856 29.29 61.3496 29.52 61.4736 29.816C61.6016 30.108 61.6656 30.484 61.6656 30.944V35H60.5496V31.052C60.5496 30.676 60.4896 30.384 60.3696 30.176C60.2496 29.968 60.0916 29.824 59.8956 29.744C59.7036 29.66 59.4976 29.618 59.2776 29.618C59.0856 29.618 58.8816 29.656 58.6656 29.732C58.4496 29.808 58.2656 29.936 58.1136 30.116C57.9616 30.296 57.8856 30.542 57.8856 30.854V35H56.7816V30.728C56.7816 30.484 56.7156 30.28 56.5836 30.116C56.4556 29.948 56.2936 29.824 56.0976 29.744C55.9056 29.66 55.7136 29.618 55.5216 29.618C55.3096 29.618 55.0956 29.662 54.8796 29.75C54.6676 29.834 54.4876 29.966 54.3396 30.146C54.1956 30.326 54.1236 30.562 54.1236 30.854V35H53.0196ZM66.4684 35.12C65.9844 35.12 65.5984 35.038 65.3104 34.874C65.0224 34.71 64.8064 34.518 64.6624 34.298C64.5184 34.078 64.4204 33.888 64.3684 33.728L64.2484 35H63.4024V26.084H64.5184V29.78C64.5864 29.644 64.7044 29.49 64.8724 29.318C65.0404 29.146 65.2624 28.996 65.5384 28.868C65.8184 28.74 66.1564 28.676 66.5524 28.676C67.3284 28.676 67.9444 28.946 68.4004 29.486C68.8604 30.026 69.0904 30.822 69.0904 31.874C69.0904 32.85 68.8704 33.636 68.4304 34.232C67.9944 34.824 67.3404 35.12 66.4684 35.12ZM66.2704 34.268C66.7704 34.268 67.1784 34.074 67.4944 33.686C67.8144 33.294 67.9744 32.672 67.9744 31.82C67.9744 31.096 67.8264 30.536 67.5304 30.14C67.2384 29.74 66.8104 29.54 66.2464 29.54C65.6304 29.54 65.1904 29.74 64.9264 30.14C64.6624 30.536 64.5264 31.096 64.5184 31.82C64.5184 32.688 64.6524 33.314 64.9204 33.698C65.1924 34.078 65.6424 34.268 66.2704 34.268ZM71.3311 32.156C71.3311 32.548 71.3951 32.904 71.5231 33.224C71.6551 33.54 71.8531 33.792 72.1171 33.98C72.3851 34.168 72.7191 34.262 73.1191 34.262C73.5151 34.262 73.8551 34.17 74.1391 33.986C74.4271 33.802 74.6111 33.536 74.6911 33.188H75.7411C75.6651 33.608 75.4971 33.962 75.2371 34.25C74.9771 34.538 74.6631 34.756 74.2951 34.904C73.9271 35.048 73.5431 35.12 73.1431 35.12C72.5631 35.12 72.0531 34.994 71.6131 34.742C71.1731 34.49 70.8291 34.128 70.5811 33.656C70.3331 33.184 70.2091 32.618 70.2091 31.958C70.2091 31.306 70.3211 30.734 70.5451 30.242C70.7691 29.75 71.0931 29.366 71.5171 29.09C71.9451 28.814 72.4591 28.676 73.0591 28.676C73.9351 28.676 74.6071 28.954 75.0751 29.51C75.5431 30.062 75.7771 30.808 75.7771 31.748V32.156H71.3311ZM71.3371 31.406H74.7091C74.7091 30.874 74.5731 30.426 74.3011 30.062C74.0291 29.698 73.6131 29.516 73.0531 29.516C72.6651 29.516 72.3431 29.61 72.0871 29.798C71.8311 29.982 71.6411 30.22 71.5171 30.512C71.3931 30.8 71.3331 31.098 71.3371 31.406ZM77.3008 35V28.796H78.3568V29.99C78.5128 29.546 78.7588 29.216 79.0948 29C79.4348 28.784 79.8008 28.676 80.1928 28.676C80.2848 28.676 80.3728 28.682 80.4568 28.694C80.5448 28.706 80.6148 28.726 80.6668 28.754V29.828C80.6068 29.8 80.5288 29.782 80.4328 29.774C80.3408 29.762 80.2628 29.756 80.1988 29.756C79.7068 29.724 79.2848 29.818 78.9328 30.038C78.5808 30.258 78.4048 30.626 78.4048 31.142V35H77.3008ZM87.4788 26.204C88.4148 26.204 89.1628 26.582 89.7228 27.338C90.2828 28.09 90.5628 29.204 90.5628 30.68C90.5628 32.152 90.2848 33.262 89.7288 34.01C89.1728 34.758 88.4188 35.132 87.4668 35.132C86.5188 35.132 85.7668 34.76 85.2108 34.016C84.6548 33.268 84.3768 32.162 84.3768 30.698C84.3768 29.214 84.6568 28.094 85.2168 27.338C85.7808 26.582 86.5348 26.204 87.4788 26.204ZM87.4788 34.172C88.0988 34.172 88.5668 33.9 88.8828 33.356C89.2028 32.812 89.3628 31.922 89.3628 30.686C89.3628 29.43 89.2008 28.526 88.8768 27.974C88.5528 27.418 88.0848 27.14 87.4728 27.14C86.8608 27.14 86.3888 27.42 86.0568 27.98C85.7288 28.536 85.5648 29.438 85.5648 30.686C85.5648 31.914 85.7288 32.802 86.0568 33.35C86.3848 33.898 86.8588 34.172 87.4788 34.172ZM93.3804 35V28.094H91.7064V27.368C92.2224 27.368 92.6244 27.33 92.9124 27.254C93.2044 27.178 93.4104 27.062 93.5304 26.906C93.6544 26.75 93.7224 26.556 93.7344 26.324H94.5264V35H93.3804Z" fill="#B0B7BA"/>
<path d="M377.608 26.324H378.718V35H377.728L373.072 28.16V35H371.962V26.324H373.024L377.608 33.068V26.324ZM383.165 35.12C382.305 35.12 381.615 34.846 381.095 34.298C380.575 33.75 380.315 32.958 380.315 31.922C380.315 31.274 380.425 30.706 380.645 30.218C380.865 29.73 381.187 29.352 381.611 29.084C382.035 28.812 382.553 28.676 383.165 28.676C384.021 28.676 384.705 28.956 385.217 29.516C385.729 30.076 385.985 30.878 385.985 31.922C385.985 32.554 385.877 33.11 385.661 33.59C385.449 34.07 385.133 34.446 384.713 34.718C384.297 34.986 383.781 35.12 383.165 35.12ZM383.165 34.244C383.721 34.244 384.147 34.036 384.443 33.62C384.739 33.2 384.887 32.626 384.887 31.898C384.887 31.454 384.827 31.056 384.707 30.704C384.591 30.348 384.407 30.066 384.155 29.858C383.903 29.65 383.573 29.546 383.165 29.546C382.601 29.546 382.169 29.754 381.869 30.17C381.569 30.582 381.419 31.158 381.419 31.898C381.419 32.334 381.479 32.73 381.599 33.086C381.719 33.442 381.907 33.724 382.163 33.932C382.419 34.14 382.753 34.244 383.165 34.244ZM392.109 28.796L389.871 35H388.863L386.619 28.796H387.663L389.313 33.608H389.415L391.071 28.796H392.109ZM393.866 32.156C393.866 32.548 393.93 32.904 394.058 33.224C394.19 33.54 394.388 33.792 394.652 33.98C394.92 34.168 395.254 34.262 395.654 34.262C396.05 34.262 396.39 34.17 396.674 33.986C396.962 33.802 397.146 33.536 397.226 33.188H398.276C398.2 33.608 398.032 33.962 397.772 34.25C397.512 34.538 397.198 34.756 396.83 34.904C396.462 35.048 396.078 35.12 395.678 35.12C395.098 35.12 394.588 34.994 394.148 34.742C393.708 34.49 393.364 34.128 393.116 33.656C392.868 33.184 392.744 32.618 392.744 31.958C392.744 31.306 392.856 30.734 393.08 30.242C393.304 29.75 393.628 29.366 394.052 29.09C394.48 28.814 394.994 28.676 395.594 28.676C396.47 28.676 397.142 28.954 397.61 29.51C398.078 30.062 398.312 30.808 398.312 31.748V32.156H393.866ZM393.872 31.406H397.244C397.244 30.874 397.108 30.426 396.836 30.062C396.564 29.698 396.148 29.516 395.588 29.516C395.2 29.516 394.878 29.61 394.622 29.798C394.366 29.982 394.176 30.22 394.052 30.512C393.928 30.8 393.868 31.098 393.872 31.406ZM399.835 35V28.796H400.903V29.696C401.075 29.42 401.309 29.182 401.605 28.982C401.905 28.778 402.297 28.676 402.781 28.676C403.121 28.676 403.463 28.762 403.807 28.934C404.151 29.106 404.405 29.358 404.569 29.69C404.761 29.386 405.021 29.142 405.349 28.958C405.677 28.77 406.047 28.676 406.459 28.676C406.675 28.676 406.901 28.71 407.137 28.778C407.373 28.842 407.593 28.958 407.797 29.126C408.001 29.29 408.165 29.52 408.289 29.816C408.417 30.108 408.481 30.484 408.481 30.944V35H407.365V31.052C407.365 30.676 407.305 30.384 407.185 30.176C407.065 29.968 406.907 29.824 406.711 29.744C406.519 29.66 406.313 29.618 406.093 29.618C405.901 29.618 405.697 29.656 405.481 29.732C405.265 29.808 405.081 29.936 404.929 30.116C404.777 30.296 404.701 30.542 404.701 30.854V35H403.597V30.728C403.597 30.484 403.531 30.28 403.399 30.116C403.271 29.948 403.109 29.824 402.913 29.744C402.721 29.66 402.529 29.618 402.337 29.618C402.125 29.618 401.911 29.662 401.695 29.75C401.483 29.834 401.303 29.966 401.155 30.146C401.011 30.326 400.939 30.562 400.939 30.854V35H399.835ZM413.284 35.12C412.8 35.12 412.414 35.038 412.126 34.874C411.838 34.71 411.622 34.518 411.478 34.298C411.334 34.078 411.236 33.888 411.184 33.728L411.064 35H410.218V26.084H411.334V29.78C411.402 29.644 411.52 29.49 411.688 29.318C411.856 29.146 412.078 28.996 412.354 28.868C412.634 28.74 412.972 28.676 413.368 28.676C414.144 28.676 414.76 28.946 415.216 29.486C415.676 30.026 415.906 30.822 415.906 31.874C415.906 32.85 415.686 33.636 415.246 34.232C414.81 34.824 414.156 35.12 413.284 35.12ZM413.086 34.268C413.586 34.268 413.994 34.074 414.31 33.686C414.63 33.294 414.79 32.672 414.79 31.82C414.79 31.096 414.642 30.536 414.346 30.14C414.054 29.74 413.626 29.54 413.062 29.54C412.446 29.54 412.006 29.74 411.742 30.14C411.478 30.536 411.342 31.096 411.334 31.82C411.334 32.688 411.468 33.314 411.736 33.698C412.008 34.078 412.458 34.268 413.086 34.268ZM418.147 32.156C418.147 32.548 418.211 32.904 418.339 33.224C418.471 33.54 418.669 33.792 418.933 33.98C419.201 34.168 419.535 34.262 419.935 34.262C420.331 34.262 420.671 34.17 420.955 33.986C421.243 33.802 421.427 33.536 421.507 33.188H422.557C422.481 33.608 422.313 33.962 422.053 34.25C421.793 34.538 421.479 34.756 421.111 34.904C420.743 35.048 420.359 35.12 419.959 35.12C419.379 35.12 418.869 34.994 418.429 34.742C417.989 34.49 417.645 34.128 417.397 33.656C417.149 33.184 417.025 32.618 417.025 31.958C417.025 31.306 417.137 30.734 417.361 30.242C417.585 29.75 417.909 29.366 418.333 29.09C418.761 28.814 419.275 28.676 419.875 28.676C420.751 28.676 421.423 28.954 421.891 29.51C422.359 30.062 422.593 30.808 422.593 31.748V32.156H418.147ZM418.153 31.406H421.525C421.525 30.874 421.389 30.426 421.117 30.062C420.845 29.698 420.429 29.516 419.869 29.516C419.481 29.516 419.159 29.61 418.903 29.798C418.647 29.982 418.457 30.22 418.333 30.512C418.209 30.8 418.149 31.098 418.153 31.406ZM424.117 35V28.796H425.173V29.99C425.329 29.546 425.575 29.216 425.911 29C426.251 28.784 426.617 28.676 427.009 28.676C427.101 28.676 427.189 28.682 427.273 28.694C427.361 28.706 427.431 28.726 427.483 28.754V29.828C427.423 29.8 427.345 29.782 427.249 29.774C427.157 29.762 427.079 29.756 427.015 29.756C426.523 29.724 426.101 29.818 425.749 30.038C425.397 30.258 425.221 30.626 425.221 31.142V35H424.117ZM432.849 35V28.094H431.175V27.368C431.691 27.368 432.093 27.33 432.381 27.254C432.673 27.178 432.879 27.062 432.999 26.906C433.123 26.75 433.191 26.556 433.203 26.324H433.995V35H432.849ZM439.181 26.204C440.117 26.204 440.865 26.582 441.425 27.338C441.985 28.09 442.265 29.204 442.265 30.68C442.265 32.152 441.987 33.262 441.431 34.01C440.875 34.758 440.121 35.132 439.169 35.132C438.221 35.132 437.469 34.76 436.913 34.016C436.357 33.268 436.079 32.162 436.079 30.698C436.079 29.214 436.359 28.094 436.919 27.338C437.483 26.582 438.237 26.204 439.181 26.204ZM439.181 34.172C439.801 34.172 440.269 33.9 440.585 33.356C440.905 32.812 441.065 31.922 441.065 30.686C441.065 29.43 440.903 28.526 440.579 27.974C440.255 27.418 439.787 27.14 439.175 27.14C438.563 27.14 438.091 27.42 437.759 27.98C437.431 28.536 437.267 29.438 437.267 30.686C437.267 31.914 437.431 32.802 437.759 33.35C438.087 33.898 438.561 34.172 439.181 34.172Z" fill="#B0B7BA"/>
<path d="M723.81 26.324H724.92V35H723.93L719.274 28.16V35H718.164V26.324H719.226L723.81 33.068V26.324ZM729.367 35.12C728.507 35.12 727.817 34.846 727.297 34.298C726.777 33.75 726.517 32.958 726.517 31.922C726.517 31.274 726.627 30.706 726.847 30.218C727.067 29.73 727.389 29.352 727.813 29.084C728.237 28.812 728.755 28.676 729.367 28.676C730.223 28.676 730.907 28.956 731.419 29.516C731.931 30.076 732.187 30.878 732.187 31.922C732.187 32.554 732.079 33.11 731.863 33.59C731.651 34.07 731.335 34.446 730.915 34.718C730.499 34.986 729.983 35.12 729.367 35.12ZM729.367 34.244C729.923 34.244 730.349 34.036 730.645 33.62C730.941 33.2 731.089 32.626 731.089 31.898C731.089 31.454 731.029 31.056 730.909 30.704C730.793 30.348 730.609 30.066 730.357 29.858C730.105 29.65 729.775 29.546 729.367 29.546C728.803 29.546 728.371 29.754 728.071 30.17C727.771 30.582 727.621 31.158 727.621 31.898C727.621 32.334 727.681 32.73 727.801 33.086C727.921 33.442 728.109 33.724 728.365 33.932C728.621 34.14 728.955 34.244 729.367 34.244ZM738.312 28.796L736.074 35H735.066L732.822 28.796H733.866L735.516 33.608H735.618L737.274 28.796H738.312ZM740.068 32.156C740.068 32.548 740.132 32.904 740.26 33.224C740.392 33.54 740.59 33.792 740.854 33.98C741.122 34.168 741.456 34.262 741.856 34.262C742.252 34.262 742.592 34.17 742.876 33.986C743.164 33.802 743.348 33.536 743.428 33.188H744.478C744.402 33.608 744.234 33.962 743.974 34.25C743.714 34.538 743.4 34.756 743.032 34.904C742.664 35.048 742.28 35.12 741.88 35.12C741.3 35.12 740.79 34.994 740.35 34.742C739.91 34.49 739.566 34.128 739.318 33.656C739.07 33.184 738.946 32.618 738.946 31.958C738.946 31.306 739.058 30.734 739.282 30.242C739.506 29.75 739.83 29.366 740.254 29.09C740.682 28.814 741.196 28.676 741.796 28.676C742.672 28.676 743.344 28.954 743.812 29.51C744.28 30.062 744.514 30.808 744.514 31.748V32.156H740.068ZM740.074 31.406H743.446C743.446 30.874 743.31 30.426 743.038 30.062C742.766 29.698 742.35 29.516 741.79 29.516C741.402 29.516 741.08 29.61 740.824 29.798C740.568 29.982 740.378 30.22 740.254 30.512C740.13 30.8 740.07 31.098 740.074 31.406ZM746.038 35V28.796H747.106V29.696C747.278 29.42 747.512 29.182 747.808 28.982C748.108 28.778 748.5 28.676 748.984 28.676C749.324 28.676 749.666 28.762 750.01 28.934C750.354 29.106 750.608 29.358 750.772 29.69C750.964 29.386 751.224 29.142 751.552 28.958C751.88 28.77 752.25 28.676 752.662 28.676C752.878 28.676 753.104 28.71 753.34 28.778C753.576 28.842 753.796 28.958 754 29.126C754.204 29.29 754.368 29.52 754.492 29.816C754.62 30.108 754.684 30.484 754.684 30.944V35H753.568V31.052C753.568 30.676 753.508 30.384 753.388 30.176C753.268 29.968 753.11 29.824 752.914 29.744C752.722 29.66 752.516 29.618 752.296 29.618C752.104 29.618 751.9 29.656 751.684 29.732C751.468 29.808 751.284 29.936 751.132 30.116C750.98 30.296 750.904 30.542 750.904 30.854V35H749.8V30.728C749.8 30.484 749.734 30.28 749.602 30.116C749.474 29.948 749.312 29.824 749.116 29.744C748.924 29.66 748.732 29.618 748.54 29.618C748.328 29.618 748.114 29.662 747.898 29.75C747.686 29.834 747.506 29.966 747.358 30.146C747.214 30.326 747.142 30.562 747.142 30.854V35H746.038ZM759.487 35.12C759.003 35.12 758.617 35.038 758.329 34.874C758.041 34.71 757.825 34.518 757.681 34.298C757.537 34.078 757.439 33.888 757.387 33.728L757.267 35H756.421V26.084H757.537V29.78C757.605 29.644 757.723 29.49 757.891 29.318C758.059 29.146 758.281 28.996 758.557 28.868C758.837 28.74 759.175 28.676 759.571 28.676C760.347 28.676 760.963 28.946 761.419 29.486C761.879 30.026 762.109 30.822 762.109 31.874C762.109 32.85 761.889 33.636 761.449 34.232C761.013 34.824 760.359 35.12 759.487 35.12ZM759.289 34.268C759.789 34.268 760.197 34.074 760.513 33.686C760.833 33.294 760.993 32.672 760.993 31.82C760.993 31.096 760.845 30.536 760.549 30.14C760.257 29.74 759.829 29.54 759.265 29.54C758.649 29.54 758.209 29.74 757.945 30.14C757.681 30.536 757.545 31.096 757.537 31.82C757.537 32.688 757.671 33.314 757.939 33.698C758.211 34.078 758.661 34.268 759.289 34.268ZM764.349 32.156C764.349 32.548 764.413 32.904 764.541 33.224C764.673 33.54 764.871 33.792 765.135 33.98C765.403 34.168 765.737 34.262 766.137 34.262C766.533 34.262 766.873 34.17 767.157 33.986C767.445 33.802 767.629 33.536 767.709 33.188H768.759C768.683 33.608 768.515 33.962 768.255 34.25C767.995 34.538 767.681 34.756 767.313 34.904C766.945 35.048 766.561 35.12 766.161 35.12C765.581 35.12 765.071 34.994 764.631 34.742C764.191 34.49 763.847 34.128 763.599 33.656C763.351 33.184 763.227 32.618 763.227 31.958C763.227 31.306 763.339 30.734 763.563 30.242C763.787 29.75 764.111 29.366 764.535 29.09C764.963 28.814 765.477 28.676 766.077 28.676C766.953 28.676 767.625 28.954 768.093 29.51C768.561 30.062 768.795 30.808 768.795 31.748V32.156H764.349ZM764.355 31.406H767.727C767.727 30.874 767.591 30.426 767.319 30.062C767.047 29.698 766.631 29.516 766.071 29.516C765.683 29.516 765.361 29.61 765.105 29.798C764.849 29.982 764.659 30.22 764.535 30.512C764.411 30.8 764.351 31.098 764.355 31.406ZM770.319 35V28.796H771.375V29.99C771.531 29.546 771.777 29.216 772.113 29C772.453 28.784 772.819 28.676 773.211 28.676C773.303 28.676 773.391 28.682 773.475 28.694C773.563 28.706 773.633 28.726 773.685 28.754V29.828C773.625 29.8 773.547 29.782 773.451 29.774C773.359 29.762 773.281 29.756 773.217 29.756C772.725 29.724 772.303 29.818 771.951 30.038C771.599 30.258 771.423 30.626 771.423 31.142V35H770.319ZM777.563 35V33.968C777.563 33.524 777.645 33.14 777.809 32.816C777.977 32.492 778.197 32.21 778.469 31.97C778.745 31.726 779.045 31.508 779.369 31.316C779.697 31.124 780.023 30.94 780.347 30.764C780.675 30.584 780.975 30.398 781.247 30.206C781.523 30.01 781.743 29.79 781.907 29.546C782.071 29.298 782.153 29.006 782.153 28.67C782.153 28.23 781.997 27.872 781.685 27.596C781.377 27.32 780.959 27.182 780.431 27.182C779.863 27.182 779.407 27.342 779.063 27.662C778.719 27.982 778.525 28.408 778.481 28.94H777.377C777.385 28.44 777.507 27.984 777.743 27.572C777.979 27.156 778.325 26.824 778.781 26.576C779.237 26.328 779.801 26.204 780.473 26.204C781.053 26.204 781.557 26.308 781.985 26.516C782.413 26.72 782.743 27.008 782.975 27.38C783.211 27.748 783.329 28.178 783.329 28.67C783.329 29.118 783.247 29.502 783.083 29.822C782.919 30.142 782.701 30.42 782.429 30.656C782.161 30.892 781.865 31.102 781.541 31.286C781.221 31.466 780.899 31.64 780.575 31.808C780.255 31.976 779.961 32.154 779.693 32.342C779.425 32.53 779.209 32.744 779.045 32.984C778.881 33.224 778.799 33.51 778.799 33.842V34.016H783.377V35H777.563ZM787.646 26.204C788.582 26.204 789.33 26.582 789.89 27.338C790.45 28.09 790.73 29.204 790.73 30.68C790.73 32.152 790.452 33.262 789.896 34.01C789.34 34.758 788.586 35.132 787.634 35.132C786.686 35.132 785.934 34.76 785.378 34.016C784.822 33.268 784.544 32.162 784.544 30.698C784.544 29.214 784.824 28.094 785.384 27.338C785.948 26.582 786.702 26.204 787.646 26.204ZM787.646 34.172C788.266 34.172 788.734 33.9 789.05 33.356C789.37 32.812 789.53 31.922 789.53 30.686C789.53 29.43 789.368 28.526 789.044 27.974C788.72 27.418 788.252 27.14 787.64 27.14C787.028 27.14 786.556 27.42 786.224 27.98C785.896 28.536 785.732 29.438 785.732 30.686C785.732 31.914 785.896 32.802 786.224 33.35C786.552 33.898 787.026 34.172 787.646 34.172Z" fill="#B0B7BA"/>
<path d="M1072.17 26.324H1073.28V35H1072.29L1067.63 28.16V35H1066.52V26.324H1067.58L1072.17 33.068V26.324ZM1077.72 35.12C1076.86 35.12 1076.17 34.846 1075.65 34.298C1075.13 33.75 1074.87 32.958 1074.87 31.922C1074.87 31.274 1074.98 30.706 1075.2 30.218C1075.42 29.73 1075.75 29.352 1076.17 29.084C1076.59 28.812 1077.11 28.676 1077.72 28.676C1078.58 28.676 1079.26 28.956 1079.78 29.516C1080.29 30.076 1080.54 30.878 1080.54 31.922C1080.54 32.554 1080.44 33.11 1080.22 33.59C1080.01 34.07 1079.69 34.446 1079.27 34.718C1078.86 34.986 1078.34 35.12 1077.72 35.12ZM1077.72 34.244C1078.28 34.244 1078.71 34.036 1079 33.62C1079.3 33.2 1079.45 32.626 1079.45 31.898C1079.45 31.454 1079.39 31.056 1079.27 30.704C1079.15 30.348 1078.97 30.066 1078.71 29.858C1078.46 29.65 1078.13 29.546 1077.72 29.546C1077.16 29.546 1076.73 29.754 1076.43 30.17C1076.13 30.582 1075.98 31.158 1075.98 31.898C1075.98 32.334 1076.04 32.73 1076.16 33.086C1076.28 33.442 1076.47 33.724 1076.72 33.932C1076.98 34.14 1077.31 34.244 1077.72 34.244ZM1086.67 28.796L1084.43 35H1083.42L1081.18 28.796H1082.22L1083.87 33.608H1083.97L1085.63 28.796H1086.67ZM1088.42 32.156C1088.42 32.548 1088.49 32.904 1088.62 33.224C1088.75 33.54 1088.95 33.792 1089.21 33.98C1089.48 34.168 1089.81 34.262 1090.21 34.262C1090.61 34.262 1090.95 34.17 1091.23 33.986C1091.52 33.802 1091.7 33.536 1091.78 33.188H1092.83C1092.76 33.608 1092.59 33.962 1092.33 34.25C1092.07 34.538 1091.76 34.756 1091.39 34.904C1091.02 35.048 1090.64 35.12 1090.24 35.12C1089.66 35.12 1089.15 34.994 1088.71 34.742C1088.27 34.49 1087.92 34.128 1087.67 33.656C1087.43 33.184 1087.3 32.618 1087.3 31.958C1087.3 31.306 1087.41 30.734 1087.64 30.242C1087.86 29.75 1088.19 29.366 1088.61 29.09C1089.04 28.814 1089.55 28.676 1090.15 28.676C1091.03 28.676 1091.7 28.954 1092.17 29.51C1092.64 30.062 1092.87 30.808 1092.87 31.748V32.156H1088.42ZM1088.43 31.406H1091.8C1091.8 30.874 1091.67 30.426 1091.39 30.062C1091.12 29.698 1090.71 29.516 1090.15 29.516C1089.76 29.516 1089.44 29.61 1089.18 29.798C1088.92 29.982 1088.73 30.22 1088.61 30.512C1088.49 30.8 1088.43 31.098 1088.43 31.406ZM1094.39 35V28.796H1095.46V29.696C1095.63 29.42 1095.87 29.182 1096.16 28.982C1096.46 28.778 1096.86 28.676 1097.34 28.676C1097.68 28.676 1098.02 28.762 1098.37 28.934C1098.71 29.106 1098.96 29.358 1099.13 29.69C1099.32 29.386 1099.58 29.142 1099.91 28.958C1100.24 28.77 1100.61 28.676 1101.02 28.676C1101.23 28.676 1101.46 28.71 1101.7 28.778C1101.93 28.842 1102.15 28.958 1102.36 29.126C1102.56 29.29 1102.72 29.52 1102.85 29.816C1102.98 30.108 1103.04 30.484 1103.04 30.944V35H1101.92V31.052C1101.92 30.676 1101.86 30.384 1101.74 30.176C1101.62 29.968 1101.47 29.824 1101.27 29.744C1101.08 29.66 1100.87 29.618 1100.65 29.618C1100.46 29.618 1100.26 29.656 1100.04 29.732C1099.82 29.808 1099.64 29.936 1099.49 30.116C1099.34 30.296 1099.26 30.542 1099.26 30.854V35H1098.16V30.728C1098.16 30.484 1098.09 30.28 1097.96 30.116C1097.83 29.948 1097.67 29.824 1097.47 29.744C1097.28 29.66 1097.09 29.618 1096.9 29.618C1096.68 29.618 1096.47 29.662 1096.25 29.75C1096.04 29.834 1095.86 29.966 1095.71 30.146C1095.57 30.326 1095.5 30.562 1095.5 30.854V35H1094.39ZM1107.84 35.12C1107.36 35.12 1106.97 35.038 1106.69 34.874C1106.4 34.71 1106.18 34.518 1106.04 34.298C1105.89 34.078 1105.8 33.888 1105.74 33.728L1105.62 35H1104.78V26.084H1105.89V29.78C1105.96 29.644 1106.08 29.49 1106.25 29.318C1106.42 29.146 1106.64 28.996 1106.91 28.868C1107.19 28.74 1107.53 28.676 1107.93 28.676C1108.7 28.676 1109.32 28.946 1109.78 29.486C1110.24 30.026 1110.47 30.822 1110.47 31.874C1110.47 32.85 1110.25 33.636 1109.81 34.232C1109.37 34.824 1108.72 35.12 1107.84 35.12ZM1107.65 34.268C1108.15 34.268 1108.55 34.074 1108.87 33.686C1109.19 33.294 1109.35 32.672 1109.35 31.82C1109.35 31.096 1109.2 30.536 1108.91 30.14C1108.61 29.74 1108.19 29.54 1107.62 29.54C1107.01 29.54 1106.57 29.74 1106.3 30.14C1106.04 30.536 1105.9 31.096 1105.89 31.82C1105.89 32.688 1106.03 33.314 1106.3 33.698C1106.57 34.078 1107.02 34.268 1107.65 34.268ZM1112.71 32.156C1112.71 32.548 1112.77 32.904 1112.9 33.224C1113.03 33.54 1113.23 33.792 1113.49 33.98C1113.76 34.168 1114.09 34.262 1114.49 34.262C1114.89 34.262 1115.23 34.17 1115.51 33.986C1115.8 33.802 1115.99 33.536 1116.07 33.188H1117.12C1117.04 33.608 1116.87 33.962 1116.61 34.25C1116.35 34.538 1116.04 34.756 1115.67 34.904C1115.3 35.048 1114.92 35.12 1114.52 35.12C1113.94 35.12 1113.43 34.994 1112.99 34.742C1112.55 34.49 1112.2 34.128 1111.96 33.656C1111.71 33.184 1111.58 32.618 1111.58 31.958C1111.58 31.306 1111.7 30.734 1111.92 30.242C1112.14 29.75 1112.47 29.366 1112.89 29.09C1113.32 28.814 1113.83 28.676 1114.43 28.676C1115.31 28.676 1115.98 28.954 1116.45 29.51C1116.92 30.062 1117.15 30.808 1117.15 31.748V32.156H1112.71ZM1112.71 31.406H1116.08C1116.08 30.874 1115.95 30.426 1115.68 30.062C1115.4 29.698 1114.99 29.516 1114.43 29.516C1114.04 29.516 1113.72 29.61 1113.46 29.798C1113.21 29.982 1113.02 30.22 1112.89 30.512C1112.77 30.8 1112.71 31.098 1112.71 31.406ZM1118.68 35V28.796H1119.73V29.99C1119.89 29.546 1120.13 29.216 1120.47 29C1120.81 28.784 1121.18 28.676 1121.57 28.676C1121.66 28.676 1121.75 28.682 1121.83 28.694C1121.92 28.706 1121.99 28.726 1122.04 28.754V29.828C1121.98 29.8 1121.9 29.782 1121.81 29.774C1121.72 29.762 1121.64 29.756 1121.57 29.756C1121.08 29.724 1120.66 29.818 1120.31 30.038C1119.96 30.258 1119.78 30.626 1119.78 31.142V35H1118.68ZM1125.87 28.85C1125.87 28.29 1126 27.814 1126.27 27.422C1126.55 27.026 1126.91 26.724 1127.36 26.516C1127.82 26.308 1128.32 26.204 1128.87 26.204C1129.47 26.204 1130 26.292 1130.46 26.468C1130.92 26.64 1131.28 26.892 1131.54 27.224C1131.8 27.556 1131.93 27.962 1131.93 28.442C1131.93 28.874 1131.79 29.264 1131.52 29.612C1131.25 29.956 1130.83 30.224 1130.27 30.416C1130.84 30.572 1131.3 30.836 1131.64 31.208C1131.99 31.576 1132.16 32.042 1132.16 32.606C1132.16 33.134 1132.01 33.588 1131.72 33.968C1131.43 34.348 1131.04 34.638 1130.53 34.838C1130.03 35.038 1129.46 35.136 1128.82 35.132C1128.22 35.128 1127.7 35.018 1127.24 34.802C1126.79 34.586 1126.43 34.284 1126.17 33.896C1125.91 33.504 1125.77 33.04 1125.75 32.504H1126.86C1126.95 33.044 1127.17 33.458 1127.52 33.746C1127.88 34.034 1128.32 34.178 1128.86 34.178C1129.5 34.178 1130.01 34.032 1130.39 33.74C1130.77 33.448 1130.96 33.066 1130.96 32.594C1130.96 32.246 1130.86 31.952 1130.67 31.712C1130.47 31.472 1130.21 31.29 1129.88 31.166C1129.55 31.038 1129.18 30.972 1128.78 30.968L1128 30.95V30.008L1128.74 29.99C1129.12 29.982 1129.46 29.91 1129.76 29.774C1130.06 29.634 1130.3 29.452 1130.47 29.228C1130.64 29 1130.73 28.75 1130.73 28.478C1130.73 28.118 1130.57 27.804 1130.24 27.536C1129.92 27.264 1129.46 27.128 1128.86 27.128C1128.55 27.128 1128.25 27.188 1127.97 27.308C1127.68 27.428 1127.45 27.616 1127.26 27.872C1127.08 28.124 1126.98 28.45 1126.97 28.85H1125.87ZM1136.33 26.204C1137.27 26.204 1138.01 26.582 1138.57 27.338C1139.13 28.09 1139.41 29.204 1139.41 30.68C1139.41 32.152 1139.14 33.262 1138.58 34.01C1138.02 34.758 1137.27 35.132 1136.32 35.132C1135.37 35.132 1134.62 34.76 1134.06 34.016C1133.51 33.268 1133.23 32.162 1133.23 30.698C1133.23 29.214 1133.51 28.094 1134.07 27.338C1134.63 26.582 1135.39 26.204 1136.33 26.204ZM1136.33 34.172C1136.95 34.172 1137.42 33.9 1137.73 33.356C1138.05 32.812 1138.21 31.922 1138.21 30.686C1138.21 29.43 1138.05 28.526 1137.73 27.974C1137.4 27.418 1136.94 27.14 1136.32 27.14C1135.71 27.14 1135.24 27.42 1134.91 27.98C1134.58 28.536 1134.42 29.438 1134.42 30.686C1134.42 31.914 1134.58 32.802 1134.91 33.35C1135.24 33.898 1135.71 34.172 1136.33 34.172Z" fill="#B0B7BA"/>
</svg>
