<svg width="24" height="274" viewBox="0 0 24 274" fill="none" xmlns="http://www.w3.org/2000/svg">
<path d="M1.404 2.324H6.582L6.552 3.284H2.352L2.13 6.086C2.418 5.818 2.732 5.628 3.072 5.516C3.416 5.4 3.788 5.342 4.188 5.342C4.708 5.342 5.19 5.45 5.634 5.666C6.078 5.878 6.434 6.194 6.702 6.614C6.97 7.03 7.104 7.546 7.104 8.162C7.104 8.762 6.974 9.286 6.714 9.734C6.454 10.178 6.088 10.522 5.616 10.766C5.144 11.01 4.59 11.132 3.954 11.132C3.418 11.132 2.922 11.038 2.466 10.85C2.01 10.662 1.618 10.4 1.29 10.064C0.966 9.728 0.728 9.342 0.576 8.906L1.536 8.504C1.748 8.996 2.048 9.402 2.436 9.722C2.824 10.038 3.304 10.196 3.876 10.196C4.492 10.196 4.986 10.018 5.358 9.662C5.734 9.302 5.922 8.814 5.922 8.198C5.922 7.814 5.834 7.478 5.658 7.19C5.482 6.902 5.244 6.68 4.944 6.524C4.648 6.364 4.32 6.284 3.96 6.284C3.608 6.284 3.286 6.336 2.994 6.44C2.702 6.54 2.392 6.772 2.064 7.136C2.028 7.152 1.99 7.15 1.95 7.13L1.014 6.836L1.404 2.324ZM11.3655 2.204C12.3015 2.204 13.0495 2.582 13.6095 3.338C14.1695 4.09 14.4495 5.204 14.4495 6.68C14.4495 8.152 14.1715 9.262 13.6155 10.01C13.0595 10.758 12.3055 11.132 11.3535 11.132C10.4055 11.132 9.6535 10.76 9.0975 10.016C8.5415 9.268 8.2635 8.162 8.2635 6.698C8.2635 5.214 8.5435 4.094 9.1035 3.338C9.6675 2.582 10.4215 2.204 11.3655 2.204ZM11.3655 10.172C11.9855 10.172 12.4535 9.9 12.7695 9.356C13.0895 8.812 13.2495 7.922 13.2495 6.686C13.2495 5.43 13.0875 4.526 12.7635 3.974C12.4395 3.418 11.9715 3.14 11.3595 3.14C10.7475 3.14 10.2755 3.42 9.9435 3.98C9.6155 4.536 9.4515 5.438 9.4515 6.686C9.4515 7.914 9.6155 8.802 9.9435 9.35C10.2715 9.898 10.7455 10.172 11.3655 10.172ZM22.7992 11H21.5452L18.8392 6.542L17.3332 8.264V11H16.1812V2.324H17.3332V6.812L21.2212 2.324H22.5472L19.6492 5.732L22.7992 11Z" fill="#B0B7BA"/>
<path d="M2.232 63V56.094H0.558V55.368C1.074 55.368 1.476 55.33 1.764 55.254C2.056 55.178 2.262 55.062 2.382 54.906C2.506 54.75 2.574 54.556 2.586 54.324H3.378V63H2.232ZM8.56472 54.204C9.50072 54.204 10.2487 54.582 10.8087 55.338C11.3687 56.09 11.6487 57.204 11.6487 58.68C11.6487 60.152 11.3707 61.262 10.8147 62.01C10.2587 62.758 9.50472 63.132 8.55272 63.132C7.60472 63.132 6.85272 62.76 6.29672 62.016C5.74072 61.268 5.46272 60.162 5.46272 58.698C5.46272 57.214 5.74272 56.094 6.30272 55.338C6.86672 54.582 7.62072 54.204 8.56472 54.204ZM8.56472 62.172C9.18472 62.172 9.65272 61.9 9.96872 61.356C10.2887 60.812 10.4487 59.922 10.4487 58.686C10.4487 57.43 10.2867 56.526 9.96272 55.974C9.63872 55.418 9.17072 55.14 8.55872 55.14C7.94672 55.14 7.47472 55.42 7.14272 55.98C6.81472 56.536 6.65072 57.438 6.65072 58.686C6.65072 59.914 6.81472 60.802 7.14272 61.35C7.47072 61.898 7.94472 62.172 8.56472 62.172ZM19.9984 63H18.7444L16.0384 58.542L14.5324 60.264V63H13.3804V54.324H14.5324V58.812L18.4204 54.324H19.7464L16.8484 57.732L19.9984 63Z" fill="#B0B7BA"/>
<path d="M2.232 115V108.094H0.558V107.368C1.074 107.368 1.476 107.33 1.764 107.254C2.056 107.178 2.262 107.062 2.382 106.906C2.506 106.75 2.574 106.556 2.586 106.324H3.378V115H2.232ZM12.6507 115H11.3967L8.69072 110.542L7.18472 112.264V115H6.03272V106.324H7.18472V110.812L11.0727 106.324H12.3987L9.50072 109.732L12.6507 115Z" fill="#B0B7BA"/>
<path d="M1.404 158.324H6.582L6.552 159.284H2.352L2.13 162.086C2.418 161.818 2.732 161.628 3.072 161.516C3.416 161.4 3.788 161.342 4.188 161.342C4.708 161.342 5.19 161.45 5.634 161.666C6.078 161.878 6.434 162.194 6.702 162.614C6.97 163.03 7.104 163.546 7.104 164.162C7.104 164.762 6.974 165.286 6.714 165.734C6.454 166.178 6.088 166.522 5.616 166.766C5.144 167.01 4.59 167.132 3.954 167.132C3.418 167.132 2.922 167.038 2.466 166.85C2.01 166.662 1.618 166.4 1.29 166.064C0.966 165.728 0.728 165.342 0.576 164.906L1.536 164.504C1.748 164.996 2.048 165.402 2.436 165.722C2.824 166.038 3.304 166.196 3.876 166.196C4.492 166.196 4.986 166.018 5.358 165.662C5.734 165.302 5.922 164.814 5.922 164.198C5.922 163.814 5.834 163.478 5.658 163.19C5.482 162.902 5.244 162.68 4.944 162.524C4.648 162.364 4.32 162.284 3.96 162.284C3.608 162.284 3.286 162.336 2.994 162.44C2.702 162.54 2.392 162.772 2.064 163.136C2.028 163.152 1.99 163.15 1.95 163.13L1.014 162.836L1.404 158.324ZM11.3655 158.204C12.3015 158.204 13.0495 158.582 13.6095 159.338C14.1695 160.09 14.4495 161.204 14.4495 162.68C14.4495 164.152 14.1715 165.262 13.6155 166.01C13.0595 166.758 12.3055 167.132 11.3535 167.132C10.4055 167.132 9.6535 166.76 9.0975 166.016C8.5415 165.268 8.2635 164.162 8.2635 162.698C8.2635 161.214 8.5435 160.094 9.1035 159.338C9.6675 158.582 10.4215 158.204 11.3655 158.204ZM11.3655 166.172C11.9855 166.172 12.4535 165.9 12.7695 165.356C13.0895 164.812 13.2495 163.922 13.2495 162.686C13.2495 161.43 13.0875 160.526 12.7635 159.974C12.4395 159.418 11.9715 159.14 11.3595 159.14C10.7475 159.14 10.2755 159.42 9.9435 159.98C9.6155 160.536 9.4515 161.438 9.4515 162.686C9.4515 163.914 9.6155 164.802 9.9435 165.35C10.2715 165.898 10.7455 166.172 11.3655 166.172ZM18.6311 158.204C19.5671 158.204 20.3151 158.582 20.8751 159.338C21.4351 160.09 21.7151 161.204 21.7151 162.68C21.7151 164.152 21.4371 165.262 20.8811 166.01C20.3251 166.758 19.5711 167.132 18.6191 167.132C17.6711 167.132 16.9191 166.76 16.3631 166.016C15.8071 165.268 15.5291 164.162 15.5291 162.698C15.5291 161.214 15.8091 160.094 16.3691 159.338C16.9331 158.582 17.6871 158.204 18.6311 158.204ZM18.6311 166.172C19.2511 166.172 19.7191 165.9 20.0351 165.356C20.3551 164.812 20.5151 163.922 20.5151 162.686C20.5151 161.43 20.3531 160.526 20.0291 159.974C19.7051 159.418 19.2371 159.14 18.6251 159.14C18.0131 159.14 17.5411 159.42 17.2091 159.98C16.8811 160.536 16.7171 161.438 16.7171 162.686C16.7171 163.914 16.8811 164.802 17.2091 165.35C17.5371 165.898 18.0111 166.172 18.6311 166.172Z" fill="#B0B7BA"/>
<path d="M2.232 219V212.094H0.558V211.368C1.074 211.368 1.476 211.33 1.764 211.254C2.056 211.178 2.262 211.062 2.382 210.906C2.506 210.75 2.574 210.556 2.586 210.324H3.378V219H2.232ZM8.56472 210.204C9.50072 210.204 10.2487 210.582 10.8087 211.338C11.3687 212.09 11.6487 213.204 11.6487 214.68C11.6487 216.152 11.3707 217.262 10.8147 218.01C10.2587 218.758 9.50472 219.132 8.55272 219.132C7.60472 219.132 6.85272 218.76 6.29672 218.016C5.74072 217.268 5.46272 216.162 5.46272 214.698C5.46272 213.214 5.74272 212.094 6.30272 211.338C6.86672 210.582 7.62072 210.204 8.56472 210.204ZM8.56472 218.172C9.18472 218.172 9.65272 217.9 9.96872 217.356C10.2887 216.812 10.4487 215.922 10.4487 214.686C10.4487 213.43 10.2867 212.526 9.96272 211.974C9.63872 211.418 9.17072 211.14 8.55872 211.14C7.94672 211.14 7.47472 211.42 7.14272 211.98C6.81472 212.536 6.65072 213.438 6.65072 214.686C6.65072 215.914 6.81472 216.802 7.14272 217.35C7.47072 217.898 7.94472 218.172 8.56472 218.172ZM15.8303 210.204C16.7663 210.204 17.5143 210.582 18.0743 211.338C18.6343 212.09 18.9143 213.204 18.9143 214.68C18.9143 216.152 18.6363 217.262 18.0803 218.01C17.5243 218.758 16.7703 219.132 15.8183 219.132C14.8703 219.132 14.1183 218.76 13.5623 218.016C13.0063 217.268 12.7283 216.162 12.7283 214.698C12.7283 213.214 13.0083 212.094 13.5683 211.338C14.1323 210.582 14.8863 210.204 15.8303 210.204ZM15.8303 218.172C16.4503 218.172 16.9183 217.9 17.2343 217.356C17.5543 216.812 17.7143 215.922 17.7143 214.686C17.7143 213.43 17.5523 212.526 17.2283 211.974C16.9043 211.418 16.4363 211.14 15.8243 211.14C15.2123 211.14 14.7403 211.42 14.4083 211.98C14.0803 212.536 13.9163 213.438 13.9163 214.686C13.9163 215.914 14.0803 216.802 14.4083 217.35C14.7363 217.898 15.2103 218.172 15.8303 218.172Z" fill="#B0B7BA"/>
<path d="M3.678 262.204C4.614 262.204 5.362 262.582 5.922 263.338C6.482 264.09 6.762 265.204 6.762 266.68C6.762 268.152 6.484 269.262 5.928 270.01C5.372 270.758 4.618 271.132 3.666 271.132C2.718 271.132 1.966 270.76 1.41 270.016C0.854 269.268 0.576 268.162 0.576 266.698C0.576 265.214 0.856 264.094 1.416 263.338C1.98 262.582 2.734 262.204 3.678 262.204ZM3.678 270.172C4.298 270.172 4.766 269.9 5.082 269.356C5.402 268.812 5.562 267.922 5.562 266.686C5.562 265.43 5.4 264.526 5.076 263.974C4.752 263.418 4.284 263.14 3.672 263.14C3.06 263.14 2.588 263.42 2.256 263.98C1.928 264.536 1.764 265.438 1.764 266.686C1.764 267.914 1.928 268.802 2.256 269.35C2.584 269.898 3.058 270.172 3.678 270.172ZM10.9436 262.204C11.8796 262.204 12.6276 262.582 13.1876 263.338C13.7476 264.09 14.0276 265.204 14.0276 266.68C14.0276 268.152 13.7496 269.262 13.1936 270.01C12.6376 270.758 11.8836 271.132 10.9316 271.132C9.98363 271.132 9.23163 270.76 8.67563 270.016C8.11963 269.268 7.84163 268.162 7.84163 266.698C7.84163 265.214 8.12163 264.094 8.68163 263.338C9.24563 262.582 9.99963 262.204 10.9436 262.204ZM10.9436 270.172C11.5636 270.172 12.0316 269.9 12.3476 269.356C12.6676 268.812 12.8276 267.922 12.8276 266.686C12.8276 265.43 12.6656 264.526 12.3416 263.974C12.0176 263.418 11.5496 263.14 10.9376 263.14C10.3256 263.14 9.85363 263.42 9.52163 263.98C9.19363 264.536 9.02962 265.438 9.02962 266.686C9.02962 267.914 9.19363 268.802 9.52163 269.35C9.84963 269.898 10.3236 270.172 10.9436 270.172Z" fill="#B0B7BA"/>
</svg>
