<svg width="16" height="15" viewBox="0 0 16 15" fill="none" xmlns="http://www.w3.org/2000/svg">
<path d="M8.5625 6.875V6.9375H8.625H14.875C15.0242 6.9375 15.1673 6.99676 15.2727 7.10225C15.3782 7.20774 15.4375 7.35082 15.4375 7.5C15.4375 7.64918 15.3782 7.79226 15.2727 7.89775C15.1673 8.00324 15.0242 8.0625 14.875 8.0625H8.625H8.5625V8.125V14.375C8.5625 14.5242 8.50324 14.6673 8.39775 14.7727C8.29226 14.8782 8.14918 14.9375 8 14.9375C7.85082 14.9375 7.70774 14.8782 7.60225 14.7727C7.49676 14.6673 7.4375 14.5242 7.4375 14.375V8.125V8.0625H7.375H1.125C0.975816 8.0625 0.832742 8.00324 0.727253 7.89775C0.621763 7.79226 0.5625 7.64918 0.5625 7.5C0.5625 7.35082 0.621763 7.20774 0.727252 7.10225C0.832742 6.99676 0.975816 6.9375 1.125 6.9375H7.375H7.4375V6.875V0.625C7.4375 0.475816 7.49676 0.332742 7.60225 0.227253C7.70774 0.121763 7.85082 0.0625 8 0.0625C8.14918 0.0625 8.29226 0.121763 8.39775 0.227253C8.50324 0.332742 8.5625 0.475816 8.5625 0.625V6.875Z" fill="white" stroke="white" stroke-width="0.125"/>
</svg>
